{
  "accessors": [
    {
      "bufferView": 2,
      "componentType": 5126,
      "count": 4978,
      "max": [
        866.29541015625,
        1806.896240234375,
        497.9427490234375
      ],
      "min": [
        -924.84710693359375,
        -0.8530426025390625,
        -684.983154296875
      ],
      "type": "VEC3"
    },
    {
      "bufferView": 2,
      "byteOffset": 59736,
      "componentType": 5126,
      "count": 4978,
      "max": [
        1,
        1,
        1
      ],
      "min": [
        -1,
        -1,
        -1
      ],
      "type": "VEC3"
    },
    {
      "bufferView": 3,
      "componentType": 5126,
      "count": 4978,
      "max": [
        1,
        1,
        1,
        1
      ],
      "min": [
        -1,
        -1,
        -1,
        -1
      ],
      "type": "VEC4"
    },
    {
      "bufferView": 0,
      "componentType": 5125,
      "count": 7896,
      "max": [
        4977
      ],
      "min": [
        0
      ],
      "type": "SCALAR"
    },
    {
      "bufferView": 2,
      "byteOffset": 119472,
      "componentType": 5126,
      "count": 960,
      "max": [
        870.58551025390625,
        1557.0611572265625,
        349.17742919921875
      ],
      "min": [
        -922.593994140625,
        93.847412109375,
        -557.05352783203125
      ],
      "type": "VEC3"
    },
    {
      "bufferView": 2,
      "byteOffset": 130992,
      "componentType": 5126,
      "count": 960,
      "max": [
        0.84785014390945435,
        1,
        0.84785157442092896
      ],
      "min": [
        -0.84784442186355591,
        -1,
        -0.84784984588623047
      ],
      "type": "VEC3"
    },
    {
      "bufferView": 3,
      "byteOffset": 79648,
      "componentType": 5126,
      "count": 960,
      "max": [
        0.8478514552116394,
        1,
        0.84785008430480957,
        1
      ],
      "min": [
        -0.8478514552116394,
        -1,
        -0.84785008430480957,
        1
      ],
      "type": "VEC4"
    },
    {
      "bufferView": 0,
      "byteOffset": 31584,
      "componentType": 5125,
      "count": 1440,
      "max": [
        959
      ],
      "min": [
        0
      ],
      "type": "SCALAR"
    },
    {
      "bufferView": 2,
      "byteOffset": 142512,
      "componentType": 5126,
      "count": 478,
      "max": [
        833.16943359375,
        1716.0791015625,
        478.8255615234375
      ],
      "min": [
        -894.5322265625,
        282.20953369140625,
        -665.865966796875
      ],
      "type": "VEC3"
    },
    {
      "bufferView": 2,
      "byteOffset": 148248,
      "componentType": 5126,
      "count": 478,
      "max": [
        1,
        1,
        1
      ],
      "min": [
        -1,
        -1,
        -1
      ],
      "type": "VEC3"
    },
    {
      "bufferView": 3,
      "byteOffset": 95008,
      "componentType": 5126,
      "count": 478,
      "max": [
        1,
        1,
        1,
        1
      ],
      "min": [
        -1,
        -1,
        -1,
        -1
      ],
      "type": "VEC4"
    },
    {
      "bufferView": 0,
      "byteOffset": 37344,
      "componentType": 5125,
      "count": 1086,
      "max": [
        477
      ],
      "min": [
        0
      ],
      "type": "SCALAR"
    },
    {
      "bufferView": 2,
      "byteOffset": 153984,
      "componentType": 5126,
      "count": 117,
      "max": [
        801.205078125,
        2214.384521484375,
        286.34326171875
      ],
      "min": [
        -862.5693359375,
        -7.28298255125992e-05,
        -491.4014892578125
      ],
      "type": "VEC3"
    },
    {
      "bufferView": 2,
      "byteOffset": 155388,
      "componentType": 5126,
      "count": 117,
      "max": [
        1,
        9.2997634055791423e-06,
        1
      ],
      "min": [
        -1,
        -1.2790911796400906e-06,
        -1
      ],
      "type": "VEC3"
    },
    {
      "bufferView": 3,
      "byteOffset": 102656,
      "componentType": 5126,
      "count": 117,
      "max": [
        1,
        0.06243206188082695,
        1,
        1
      ],
      "min": [
        -1,
        -0.054468758404254913,
        -1,
        1
      ],
      "type": "VEC4"
    },
    {
      "bufferView": 1,
      "componentType": 5126,
      "count": 117,
      "max": [
        5.7664904594421387,
        2.2077794075012207
      ],
      "min": [
        -4.7664904594421387,
        -1.823814868927002
      ],
      "type": "VEC2"
    },
    {
      "bufferView": 0,
      "byteOffset": 41688,
      "componentType": 5125,
      "count": 201,
      "max": [
        116
      ],
      "min": [
        0
      ],
      "type": "SCALAR"
    },
    {
      "bufferView": 2,
      "byteOffset": 156792,
      "componentType": 5126,
      "count": 136,
      "max": [
        583.7635498046875,
        2278.937255859375,
        123.226806640625
      ],
      "min": [
        -596.42913818359375,
        1827.856201171875,
        -316.414306640625
      ],
      "type": "VEC3"
    },
    {
      "bufferView": 2,
      "byteOffset": 158424,
      "componentType": 5126,
      "count": 136,
      "max": [
        0.98845958709716797,
        1,
        0.98845875263214111
      ],
      "min": [
        -0.98845869302749634,
        -1,
        -0.98845881223678589
      ],
      "type": "VEC3"
    },
    {
      "bufferView": 3,
      "byteOffset": 104528,
      "componentType": 5126,
      "count": 136,
      "max": [
        1,
        0,
        0,
        1
      ],
      "min": [
        -1,
        0,
        -1,
        1
      ],
      "type": "VEC4"
    },
    {
      "bufferView": 0,
      "byteOffset": 42492,
      "componentType": 5125,
      "count": 234,
      "max": [
        135
      ],
      "min": [
        0
      ],
      "type": "SCALAR"
    },
    {
      "bufferView": 2,
      "byteOffset": 160056,
      "componentType": 5126,
      "count": 12,
      "max": [
        552.004638671875,
        2248.391845703125,
        91.467041015625
      ],
      "min": [
        -564.6695556640625,
        1866.5089111328125,
        -284.655029296875
      ],
      "type": "VEC3"
    },
    {
      "bufferView": 2,
      "byteOffset": 160200,
      "componentType": 5126,
      "count": 12,
      "max": [
        0,
        1,
        0
      ],
      "min": [
        0,
        1,
        0
      ],
      "type": "VEC3"
    },
    {
      "bufferView": 3,
      "byteOffset": 106704,
      "componentType": 5126,
      "count": 12,
      "max": [
        0,
        0,
        -1,
        1
      ],
      "min": [
        0,
        0,
        -1,
        1
      ],
      "type": "VEC4"
    },
    {
      "bufferView": 0,
      "byteOffset": 43428,
      "componentType": 5125,
      "count": 18,
      "max": [
        11
      ],
      "min": [
        0
      ],
      "type": "SCALAR"
    },
    {
      "bufferView": 2,
      "byteOffset": 160344,
      "componentType": 5126,
      "count": 12,
      "max": [
        502.42156982421875,
        237.08995056152344,
        183.53678894042969
      ],
      "min": [
        -721.05291748046875,
        -1.9541474580764771,
        -366.999267578125
      ],
      "type": "VEC3"
    },
    {
      "bufferView": 2,
      "byteOffset": 160488,
      "componentType": 5126,
      "count": 12,
      "max": [
        0,
        0,
        1
      ],
      "min": [
        0,
        0,
        -1
      ],
      "type": "VEC3"
    },
    {
      "bufferView": 3,
      "byteOffset": 106896,
      "componentType": 5126,
      "count": 12,
      "max": [
        1,
        0,
        0,
        1
      ],
      "min": [
        -1,
        0,
        0,
        1
      ],
      "type": "VEC4"
    },
    {
      "bufferView": 0,
      "byteOffset": 43500,
      "componentType": 5125,
      "count": 18,
      "max": [
        11
      ],
      "min": [
        0
      ],
      "type": "SCALAR"
    },
    {
      "bufferView": 2,
      "byteOffset": 160632,
      "componentType": 5126,
      "count": 52,
      "max": [
        813.089111328125,
        1557.0611572265625,
        293.98150634765625
      ],
      "min": [
        -864.20819091796875,
        91.893165588378906,
        -499.55712890625
      ],
      "type": "VEC3"
    },
    {
      "bufferView": 2,
      "byteOffset": 161256,
      "componentType": 5126,
      "count": 52,
      "max": [
        1,
        0,
        1
      ],
      "min": [
        -1,
        0,
        -1
      ],
      "type": "VEC3"
    },
    {
      "bufferView": 3,
      "byteOffset": 107088,
      "componentType": 5126,
      "count": 52,
      "max": [
        1,
        0,
        1,
        1
      ],
      "min": [
        -1,
        0,
        -1,
        1
      ],
      "type": "VEC4"
    },
    {
      "bufferView": 0,
      "byteOffset": 43572,
      "componentType": 5125,
      "count": 78,
      "max": [
        51
      ],
      "min": [
        0
      ],
      "type": "SCALAR"
    },
    {
      "bufferView": 2,
      "byteOffset": 161880,
      "componentType": 5126,
      "count": 60,
      "max": [
        480.80062866210938,
        91.67266845703125,
        204.9033203125
      ],
      "min": [
        -652.346923828125,
        77.893539428710938,
        -388.36575317382812
      ],
      "type": "VEC3"
    },
    {
      "bufferView": 2,
      "byteOffset": 162600,
      "componentType": 5126,
      "count": 60,
      "max": [
        1,
        1,
        1
      ],
      "min": [
        -1,
        -1,
        -1
      ],
      "type": "VEC3"
    },
    {
      "bufferView": 3,
      "byteOffset": 107920,
      "componentType": 5126,
      "count": 60,
      "max": [
        1,
        0,
        1,
        1
      ],
      "min": [
        -1,
        0,
        -1,
        1
      ],
      "type": "VEC4"
    },
    {
      "bufferView": 0,
      "byteOffset": 43884,
      "componentType": 5125,
      "count": 90,
      "max": [
        59
      ],
      "min": [
        0
      ],
      "type": "SCALAR"
    }
  ],
  "asset": {
    "extras": {
      "author": "BlackSpire (https://sketchfab.com/blackspire)",
      "license": "CC-BY-4.0 (http://creativecommons.org/licenses/by/4.0/)",
      "source": "https://sketchfab.com/models/4da14f2ef858487d982e1394983f3f5a",
      "title": "Town_House_01"
    },
    "generator": "Sketchfab-3.18.7",
    "version": "2.0"
  },
  "bufferViews": [
    {
      "buffer": 0,
      "byteLength": 44244,
      "byteOffset": 0,
      "name": "floatBufferViews",
      "target": 34963
    },
    {
      "buffer": 0,
      "byteLength": 936,
      "byteOffset": 44244,
      "byteStride": 8,
      "name": "floatBufferViews",
      "target": 34962
    },
    {
      "buffer": 0,
      "byteLength": 163320,
      "byteOffset": 45180,
      "byteStride": 12,
      "name": "floatBufferViews",
      "target": 34962
    },
    {
      "buffer": 0,
      "byteLength": 108880,
      "byteOffset": 208500,
      "byteStride": 16,
      "name": "floatBufferViews",
      "target": 34962
    }
  ],
  "buffers": [
    {
      "byteLength": 317380,
      "uri": "scene.bin"
    }
  ],
  "images": [
    {
      "uri": "textures/Mura_03_TileMat_baseColor.jpg"
    }
  ],
  "materials": [
    {
      "doubleSided": true,
      "emissiveFactor": [
        0,
        0,
        0
      ],
      "name": "Legno02_Mat",
      "pbrMetallicRoughness": {
        "baseColorFactor": [
          0.42199999999999999,
          0.26475500000000002,
          0.12997600000000001,
          1
        ],
        "metallicFactor": 0,
        "roughnessFactor": 1
      }
    },
    {
      "doubleSided": true,
      "emissiveFactor": [
        0,
        0,
        0
      ],
      "name": "Legno01_Mat",
      "pbrMetallicRoughness": {
        "baseColorFactor": [
          0.23799999999999999,
          0.157776,
          0.09758,
          1
        ],
        "metallicFactor": 0,
        "roughnessFactor": 1
      }
    },
    {
      "doubleSided": true,
      "emissiveFactor": [
        0,
        0,
        0
      ],
      "name": "Casa_01_Mat",
      "pbrMetallicRoughness": {
        "baseColorFactor": [
          0.70199999999999996,
          0.48656100000000002,
          0.26114399999999999,
          1
        ],
        "metallicFactor": 0,
        "roughnessFactor": 1
      }
    },
    {
      "doubleSided": true,
      "emissiveFactor": [
        0,
        0,
        0
      ],
      "name": "Mura_03_TileMat",
      "pbrMetallicRoughness": {
        "baseColorFactor": [
          1,
          1,
          1,
          1
        ],
        "baseColorTexture": {
          "index": 0,
          "texCoord": 0
        },
        "metallicFactor": 0,
        "roughnessFactor": 0.59999999999999998
      }
    },
    {
      "doubleSided": true,
      "emissiveFactor": [
        0,
        0,
        0
      ],
      "name": "RocciaMura_02_Mat",
      "pbrMetallicRoughness": {
        "baseColorFactor": [
          0.21138199999999999,
          0.21138199999999999,
          0.21138199999999999,
          1
        ],
        "metallicFactor": 0,
        "roughnessFactor": 1
      }
    },
    {
      "doubleSided": true,
      "emissiveFactor": [
        0,
        0,
        0
      ],
      "name": "Zone_Ombra_Mat",
      "pbrMetallicRoughness": {
        "baseColorFactor": [
          0.0248963,
          0.0248963,
          0.0248963,
          1
        ],
        "metallicFactor": 0,
        "roughnessFactor": 1
      }
    },
    {
      "doubleSided": true,
      "emissiveFactor": [
        0,
        0,
        0
      ],
      "name": "Legno04_Mat",
      "pbrMetallicRoughness": {
        "baseColorFactor": [
          0.36585400000000001,
          0.247948,
          0.15947700000000001,
          1
        ],
        "metallicFactor": 0,
        "roughnessFactor": 1
      }
    },
    {
      "doubleSided": true,
      "emissiveFactor": [
        0,
        0,
        0
      ],
      "name": "Glass_01_Mat",
      "pbrMetallicRoughness": {
        "baseColorFactor": [
          0.224361,
          0.30296200000000001,
          0.34750199999999998,
          1
        ],
        "metallicFactor": 0,
        "roughnessFactor": 1
      }
    },
    {
      "doubleSided": true,
      "emissiveFactor": [
        0,
        0,
        0
      ],
      "name": "Ferro03_Mat",
      "pbrMetallicRoughness": {
        "baseColorFactor": [
          0.27200000000000002,
          0.27200000000000002,
          0.27200000000000002,
          1
        ],
        "metallicFactor": 0,
        "roughnessFactor": 1
      }
    }
  ],
  "meshes": [
    {
      "name": "pCube3448_Legno02_Mat_0",
      "primitives": [
        {
          "attributes": {
            "NORMAL": 1,
            "POSITION": 0,
            "TANGENT": 2
          },
          "indices": 3,
          "material": 0,
          "mode": 4
        }
      ]
    },
    {
      "name": "pCube3448_Legno01_Mat_0",
      "primitives": [
        {
          "attributes": {
            "NORMAL": 5,
            "POSITION": 4,
            "TANGENT": 6
          },
          "indices": 7,
          "material": 1,
          "mode": 4
        }
      ]
    },
    {
      "name": "pCube3448_Casa_01_Mat_0",
      "primitives": [
        {
          "attributes": {
            "NORMAL": 9,
            "POSITION": 8,
            "TANGENT": 10
          },
          "indices": 11,
          "material": 2,
          "mode": 4
        }
      ]
    },
    {
      "name": "pCube3448_Mura_03_TileMat_0",
      "primitives": [
        {
          "attributes": {
            "NORMAL": 13,
            "POSITION": 12,
            "TANGENT": 14,
            "TEXCOORD_0": 15
          },
          "indices": 16,
          "material": 3,
          "mode": 4
        }
      ]
    },
    {
      "name": "pCube3448_RocciaMura_02_Mat_0",
      "primitives": [
        {
          "attributes": {
            "NORMAL": 18,
            "POSITION": 17,
            "TANGENT": 19
          },
          "indices": 20,
          "material": 4,
          "mode": 4
        }
      ]
    },
    {
      "name": "pCube3448_Zone_Ombra_Mat_0",
      "primitives": [
        {
          "attributes": {
            "NORMAL": 22,
            "POSITION": 21,
            "TANGENT": 23
          },
          "indices": 24,
          "material": 5,
          "mode": 4
        }
      ]
    },
    {
      "name": "pCube3448_Legno04_Mat_0",
      "primitives": [
        {
          "attributes": {
            "NORMAL": 26,
            "POSITION": 25,
            "TANGENT": 27
          },
          "indices": 28,
          "material": 6,
          "mode": 4
        }
      ]
    },
    {
      "name": "pCube3448_Glass_01_Mat_0",
      "primitives": [
        {
          "attributes": {
            "NORMAL": 30,
            "POSITION": 29,
            "TANGENT": 31
          },
          "indices": 32,
          "material": 7,
          "mode": 4
        }
      ]
    },
    {
      "name": "pCube3448_Ferro03_Mat_0",
      "primitives": [
        {
          "attributes": {
            "NORMAL": 34,
            "POSITION": 33,
            "TANGENT": 35
          },
          "indices": 36,
          "material": 8,
          "mode": 4
        }
      ]
    }
  ],
  "nodes": [
    {
      "children": [
        1
      ],
      "name": "RootNode (gltf orientation matrix)",
      "rotation": [
        -0.70710678118654746,
        -0,
        -0,
        0.70710678118654757
      ]
    },
    {
      "children": [
        2
      ],
      "name": "RootNode (model correction matrix)"
    },
    {
      "children": [
        3
      ],
      "matrix": [
        1,
        0,
        0,
        0,
        0,
        0,
        1,
        0,
        0,
        -1,
        0,
        0,
        0,
        0,
        0,
        1
      ],
      "name": "4218fa1ca1424ea2aa3c19beade4dbb0.fbx"
    },
    {
      "children": [
        4
      ],
      "name": "RootNode"
    },
    {
      "children": [
        5,
        6,
        7,
        8,
        9,
        10,
        11,
        12,
        13
      ],
      "matrix": [
        0.0099999997764825821,
        0,
        0,
        0,
        0,
        0.0099999997764825821,
        0,
        0,
        0,
        0,
        0.0099999997764825821,
        0,
        0,
        0,
        0,
        1
      ],
      "name": "pCube3448"
    },
    {
      "mesh": 0,
      "name": "pCube3448_Legno02_Mat_0"
    },
    {
      "mesh": 1,
      "name": "pCube3448_Legno01_Mat_0"
    },
    {
      "mesh": 2,
      "name": "pCube3448_Casa_01_Mat_0"
    },
    {
      "mesh": 3,
      "name": "pCube3448_Mura_03_TileMat_0"
    },
    {
      "mesh": 4,
      "name": "pCube3448_RocciaMura_02_Mat_0"
    },
    {
      "mesh": 5,
      "name": "pCube3448_Zone_Ombra_Mat_0"
    },
    {
      "mesh": 6,
      "name": "pCube3448_Legno04_Mat_0"
    },
    {
      "mesh": 7,
      "name": "pCube3448_Glass_01_Mat_0"
    },
    {
      "mesh": 8,
      "name": "pCube3448_Ferro03_Mat_0"
    }
  ],
  "samplers": [
    {
      "magFilter": 9729,
      "minFilter": 9987,
      "wrapS": 10497,
      "wrapT": 10497
    }
  ],
  "scene": 0,
  "scenes": [
    {
      "name": "OSG_Scene",
      "nodes": [
        0
      ]
    }
  ],
  "textures": [
    {
      "sampler": 0,
      "source": 0
    }
  ]
}

