{
  "accessors": [
    {
      "bufferView": 1,
      "componentType": 5126,
      "count": 448,
      "max": [
        390.38796997070312,
        174.01518249511719,
        48.414459228515625
      ],
      "min": [
        -324.63778686523438,
        -307.2515869140625,
        -133.02908325195312
      ],
      "type": "VEC3"
    },
    {
      "bufferView": 1,
      "byteOffset": 5376,
      "componentType": 5126,
      "count": 448,
      "max": [
        0.99875086545944214,
        0.99916630983352661,
        0.9980970025062561
      ],
      "min": [
        -0.99835318326950073,
        -0.9997255802154541,
        -0.99964058399200439
      ],
      "type": "VEC3"
    },
    {
      "bufferView": 2,
      "componentType": 5126,
      "count": 448,
      "max": [
        0.66159540414810181,
        0.22497023642063141,
        0.61567747592926025,
        1
      ],
      "min": [
        -0.3954339325428009,
        -0.99852192401885986,
        -0.99834811687469482,
        -1
      ],
      "type": "VEC4"
    },
    {
      "bufferView": 0,
      "componentType": 5125,
      "count": 666,
      "max": [
        447
      ],
      "min": [
        0
      ],
      "type": "SCALAR"
    }
  ],
  "asset": {
    "extras": {
      "author": "Anna Vidal ENTI (https://sketchfab.com/annavidal)",
      "license": "CC-BY-4.0 (http://creativecommons.org/licenses/by/4.0/)",
      "source": "https://sketchfab.com/models/1100cdeb7f09457dbfdad86ff455d62a",
      "title": "Low poly human hand"
    },
    "generator": "Sketchfab-3.18.7",
    "version": "2.0"
  },
  "bufferViews": [
    {
      "buffer": 0,
      "byteLength": 2664,
      "byteOffset": 0,
      "name": "floatBufferViews",
      "target": 34963
    },
    {
      "buffer": 0,
      "byteLength": 10752,
      "byteOffset": 2664,
      "byteStride": 12,
      "name": "floatBufferViews",
      "target": 34962
    },
    {
      "buffer": 0,
      "byteLength": 7168,
      "byteOffset": 13416,
      "byteStride": 16,
      "name": "floatBufferViews",
      "target": 34962
    }
  ],
  "buffers": [
    {
      "byteLength": 20584,
      "uri": "scene.bin"
    }
  ],
  "materials": [
    {
      "doubleSided": false,
      "emissiveFactor": [
        0,
        0,
        0
      ],
      "name": "Scene_-_Root",
      "pbrMetallicRoughness": {
        "baseColorFactor": [
          1,
          0.46634845250000001,
          0.14758262289999999,
          1
        ],
        "metallicFactor": 0,
        "roughnessFactor": 0.59999999999999998
      }
    }
  ],
  "meshes": [
    {
      "name": "Low poly cutre Anna <3__0",
      "primitives": [
        {
          "attributes": {
            "NORMAL": 1,
            "POSITION": 0,
            "TANGENT": 2
          },
          "indices": 3,
          "material": 0,
          "mode": 4
        }
      ]
    }
  ],
  "nodes": [
    {
      "children": [
        1
      ],
      "name": "RootNode (gltf orientation matrix)",
      "rotation": [
        -0.70710678118654746,
        -0,
        -0,
        0.70710678118654757
      ]
    },
    {
      "children": [
        2
      ],
      "name": "RootNode (model correction matrix)"
    },
    {
      "children": [
        3
      ],
      "matrix": [
        1,
        0,
        0,
        0,
        0,
        0,
        1,
        0,
        0,
        -1,
        0,
        0,
        0,
        0,
        0,
        1
      ],
      "name": "82fb4727b3d94865ba0922d945ad97bc.fbx"
    },
    {
      "children": [
        4
      ],
      "name": "RootNode"
    },
    {
      "children": [
        5
      ],
      "matrix": [
        0.04912551611630589,
        -1.1102230246251565e-16,
        0.99879261294139865,
        0,
        0.99879261294139865,
        -2.2204460492503131e-16,
        -0.049125516116305945,
        0,
        1.1102230246251565e-16,
        1,
        0,
        0,
        -0.12911319732666016,
        -14.6954345703125,
        9.5271739959716797,
        1
      ],
      "name": "Low poly cutre Anna <3"
    },
    {
      "mesh": 0,
      "name": "Low poly cutre Anna <3__0"
    }
  ],
  "scene": 0,
  "scenes": [
    {
      "name": "OSG_Scene",
      "nodes": [
        0
      ]
    }
  ]
}

