{
  "accessors": [
    {
      "bufferView": 2,
      "componentType": 5126,
      "count": 152,
      "max": [
        422.962890625,
        1334.7410888671875,
        411.225830078125
      ],
      "min": [
        -422.96484375,
        926.64263916015625,
        -411.2255859375
      ],
      "type": "VEC3"
    },
    {
      "bufferView": 2,
      "byteOffset": 1824,
      "componentType": 5126,
      "count": 152,
      "max": [
        1,
        1,
        1
      ],
      "min": [
        -1,
        -1,
        -1
      ],
      "type": "VEC3"
    },
    {
      "bufferView": 3,
      "componentType": 5126,
      "count": 152,
      "max": [
        1,
        0.42211711406707764,
        1,
        1
      ],
      "min": [
        -0.98816847801208496,
        -0.42211505770683289,
        -1,
        -1
      ],
      "type": "VEC4"
    },
    {
      "bufferView": 0,
      "componentType": 5125,
      "count": 288,
      "max": [
        151
      ],
      "min": [
        0
      ],
      "type": "SCALAR"
    },
    {
      "bufferView": 2,
      "byteOffset": 3648,
      "componentType": 5126,
      "count": 200,
      "max": [
        242.599609375,
        1275.0504150390625,
        400.306640625
      ],
      "min": [
        -288.5078125,
        1138.8929443359375,
        146.00390625
      ],
      "type": "VEC3"
    },
    {
      "bufferView": 2,
      "byteOffset": 6048,
      "componentType": 5126,
      "count": 200,
      "max": [
        1,
        1,
        0.98576885461807251
      ],
      "min": [
        -1,
        -1,
        -0.98577183485031128
      ],
      "type": "VEC3"
    },
    {
      "bufferView": 3,
      "byteOffset": 2432,
      "componentType": 5126,
      "count": 200,
      "max": [
        0.98576873540878296,
        0.5152968168258667,
        0.98577326536178589,
        1
      ],
      "min": [
        -0.98577189445495605,
        -0.28791326284408569,
        -0.98577332496643066,
        1
      ],
      "type": "VEC4"
    },
    {
      "bufferView": 0,
      "byteOffset": 1152,
      "componentType": 5125,
      "count": 336,
      "max": [
        199
      ],
      "min": [
        0
      ],
      "type": "SCALAR"
    },
    {
      "bufferView": 2,
      "byteOffset": 8448,
      "componentType": 5126,
      "count": 6,
      "max": [
        303.5546875,
        1203.0394287109375,
        386.455078125
      ],
      "min": [
        -329.166015625,
        1203.0394287109375,
        -312.91162109375
      ],
      "type": "VEC3"
    },
    {
      "bufferView": 2,
      "byteOffset": 8520,
      "componentType": 5126,
      "count": 6,
      "max": [
        0,
        1,
        1.6898036392376525e-07
      ],
      "min": [
        0,
        1,
        5.6402928549914577e-08
      ],
      "type": "VEC3"
    },
    {
      "bufferView": 3,
      "byteOffset": 5632,
      "componentType": 5126,
      "count": 6,
      "max": [
        -0.39753609895706177,
        -5.1754561525285681e-08,
        0.9175865650177002,
        1
      ],
      "min": [
        -0.40021258592605591,
        -1.5495584193558898e-07,
        0.91642230749130249,
        1
      ],
      "type": "VEC4"
    },
    {
      "bufferView": 1,
      "componentType": 5126,
      "count": 6,
      "max": [
        0.85725522041320801,
        0.65132427215576172
      ],
      "min": [
        0.19154229760169983,
        0.34867572784423828
      ],
      "type": "VEC2"
    },
    {
      "bufferView": 0,
      "byteOffset": 2496,
      "componentType": 5125,
      "count": 12,
      "max": [
        5
      ],
      "min": [
        0
      ],
      "type": "SCALAR"
    },
    {
      "bufferView": 2,
      "byteOffset": 8592,
      "componentType": 5126,
      "count": 12,
      "max": [
        303.5546875,
        1203.0394287109375,
        386.455078125
      ],
      "min": [
        -329.166015625,
        -9.9182121630292386e-05,
        -312.91162109375
      ],
      "type": "VEC3"
    },
    {
      "bufferView": 2,
      "byteOffset": 8736,
      "componentType": 5126,
      "count": 12,
      "max": [
        0.55536383390426636,
        0,
        0.98092412948608398
      ],
      "min": [
        -0.55536955595016479,
        0,
        -0.98112964630126953
      ],
      "type": "VEC3"
    },
    {
      "bufferView": 3,
      "byteOffset": 5728,
      "componentType": 5126,
      "count": 12,
      "max": [
        0.98092412948608398,
        1.2253919976501493e-06,
        0.55536961555480957,
        1
      ],
      "min": [
        -0.98112964630126953,
        0,
        -0.55536383390426636,
        1
      ],
      "type": "VEC4"
    },
    {
      "bufferView": 1,
      "byteOffset": 48,
      "componentType": 5126,
      "count": 12,
      "max": [
        1.6272966861724854,
        1.8129609823226929
      ],
      "min": [
        -0.89103662967681885,
        -0.035603433847427368
      ],
      "type": "VEC2"
    },
    {
      "bufferView": 0,
      "byteOffset": 2544,
      "componentType": 5125,
      "count": 24,
      "max": [
        11
      ],
      "min": [
        0
      ],
      "type": "SCALAR"
    },
    {
      "bufferView": 2,
      "byteOffset": 8880,
      "componentType": 5126,
      "count": 24,
      "max": [
        327.943359375,
        1206.365234375,
        343.8955078125
      ],
      "min": [
        -328.986328125,
        1192.72119140625,
        -311.74853515625
      ],
      "type": "VEC3"
    },
    {
      "bufferView": 2,
      "byteOffset": 9168,
      "componentType": 5126,
      "count": 24,
      "max": [
        1,
        1,
        0.70710551738739014
      ],
      "min": [
        -1,
        0,
        -0.70710551738739014
      ],
      "type": "VEC3"
    },
    {
      "bufferView": 3,
      "byteOffset": 5920,
      "componentType": 5126,
      "count": 24,
      "max": [
        0.70710635185241699,
        0,
        -0.70710724592208862,
        1
      ],
      "min": [
        0,
        0,
        -1,
        1
      ],
      "type": "VEC4"
    },
    {
      "bufferView": 0,
      "byteOffset": 2640,
      "componentType": 5125,
      "count": 36,
      "max": [
        23
      ],
      "min": [
        0
      ],
      "type": "SCALAR"
    },
    {
      "bufferView": 2,
      "byteOffset": 9456,
      "componentType": 5126,
      "count": 168,
      "max": [
        330.7734375,
        1010.8753051757812,
        164.3212890625
      ],
      "min": [
        -375,
        -1.52587890625e-05,
        -338.4990234375
      ],
      "type": "VEC3"
    },
    {
      "bufferView": 2,
      "byteOffset": 11472,
      "componentType": 5126,
      "count": 168,
      "max": [
        1,
        1,
        0.7976037859916687
      ],
      "min": [
        -1,
        -1,
        -1
      ],
      "type": "VEC3"
    },
    {
      "bufferView": 3,
      "byteOffset": 6304,
      "componentType": 5126,
      "count": 168,
      "max": [
        0.9999924898147583,
        1.2593645806191489e-06,
        0.68811911344528198,
        1
      ],
      "min": [
        0,
        -1,
        -0.72994965314865112,
        1
      ],
      "type": "VEC4"
    },
    {
      "bufferView": 0,
      "byteOffset": 2784,
      "componentType": 5125,
      "count": 288,
      "max": [
        167
      ],
      "min": [
        0
      ],
      "type": "SCALAR"
    },
    {
      "bufferView": 2,
      "byteOffset": 13488,
      "componentType": 5126,
      "count": 216,
      "max": [
        -279.65234375,
        956.24200439453125,
        164.3212890625
      ],
      "min": [
        -381.228515625,
        9.5923269327613525e-14,
        73.66162109375
      ],
      "type": "VEC3"
    },
    {
      "bufferView": 2,
      "byteOffset": 16080,
      "componentType": 5126,
      "count": 216,
      "max": [
        0.72996664047241211,
        1,
        0.79635542631149292
      ],
      "min": [
        -0.72991174459457397,
        -1,
        -0.68591195344924927
      ],
      "type": "VEC3"
    },
    {
      "bufferView": 3,
      "byteOffset": 8992,
      "componentType": 5126,
      "count": 216,
      "max": [
        0.9999924898147583,
        3.9688170545559842e-06,
        0.688132643699646,
        1
      ],
      "min": [
        0.50712460279464722,
        -0.67043173313140869,
        -0.72996664047241211,
        1
      ],
      "type": "VEC4"
    },
    {
      "bufferView": 0,
      "byteOffset": 3936,
      "componentType": 5125,
      "count": 378,
      "max": [
        215
      ],
      "min": [
        0
      ],
      "type": "SCALAR"
    }
  ],
  "asset": {
    "extras": {
      "author": "BlackSpire (https://sketchfab.com/blackspire)",
      "license": "CC-BY-4.0 (http://creativecommons.org/licenses/by/4.0/)",
      "source": "https://sketchfab.com/models/4a48d6f3a9ea4351b69af234d74d7e1b",
      "title": "Castle_Wall_Curve_01"
    },
    "generator": "Sketchfab-3.18.7",
    "version": "2.0"
  },
  "bufferViews": [
    {
      "buffer": 0,
      "byteLength": 5448,
      "byteOffset": 0,
      "name": "floatBufferViews",
      "target": 34963
    },
    {
      "buffer": 0,
      "byteLength": 144,
      "byteOffset": 5448,
      "byteStride": 8,
      "name": "floatBufferViews",
      "target": 34962
    },
    {
      "buffer": 0,
      "byteLength": 18672,
      "byteOffset": 5592,
      "byteStride": 12,
      "name": "floatBufferViews",
      "target": 34962
    },
    {
      "buffer": 0,
      "byteLength": 12448,
      "byteOffset": 24264,
      "byteStride": 16,
      "name": "floatBufferViews",
      "target": 34962
    }
  ],
  "buffers": [
    {
      "byteLength": 36712,
      "uri": "scene.bin"
    }
  ],
  "images": [
    {
      "uri": "textures/Mura_01_TileMat_baseColor.jpg"
    },
    {
      "uri": "textures/Passerella_Legno_TopMura_TileMura_baseColor.jpg"
    }
  ],
  "materials": [
    {
      "doubleSided": true,
      "emissiveFactor": [
        0,
        0,
        0
      ],
      "name": "RocciaMura_01_Mat",
      "pbrMetallicRoughness": {
        "baseColorFactor": [
          0.24718200000000001,
          0.24718200000000001,
          0.24718200000000001,
          1
        ],
        "metallicFactor": 0,
        "roughnessFactor": 1
      }
    },
    {
      "doubleSided": true,
      "emissiveFactor": [
        0,
        0,
        0
      ],
      "name": "RocciaMura_05_Mat",
      "pbrMetallicRoughness": {
        "baseColorFactor": [
          0.32400000000000001,
          0.32400000000000001,
          0.32400000000000001,
          1
        ],
        "metallicFactor": 0,
        "roughnessFactor": 1
      }
    },
    {
      "doubleSided": true,
      "emissiveFactor": [
        0,
        0,
        0
      ],
      "name": "Passerella_Legno_TopMura_TileMura",
      "pbrMetallicRoughness": {
        "baseColorFactor": [
          1,
          1,
          1,
          1
        ],
        "baseColorTexture": {
          "index": 1,
          "texCoord": 0
        },
        "metallicFactor": 0,
        "roughnessFactor": 1
      }
    },
    {
      "doubleSided": true,
      "emissiveFactor": [
        0,
        0,
        0
      ],
      "name": "Mura_01_TileMat",
      "pbrMetallicRoughness": {
        "baseColorFactor": [
          1,
          1,
          1,
          1
        ],
        "baseColorTexture": {
          "index": 0,
          "texCoord": 0
        },
        "metallicFactor": 0,
        "roughnessFactor": 1
      }
    },
    {
      "doubleSided": true,
      "emissiveFactor": [
        0,
        0,
        0
      ],
      "name": "Legno02_Mat",
      "pbrMetallicRoughness": {
        "baseColorFactor": [
          0.42199999999999999,
          0.26475500000000002,
          0.12997600000000001,
          1
        ],
        "metallicFactor": 0,
        "roughnessFactor": 1
      }
    },
    {
      "doubleSided": true,
      "emissiveFactor": [
        0,
        0,
        0
      ],
      "name": "RocciaMura_04_Mat",
      "pbrMetallicRoughness": {
        "baseColorFactor": [
          0.143424,
          0.143424,
          0.143424,
          1
        ],
        "metallicFactor": 0,
        "roughnessFactor": 1
      }
    },
    {
      "doubleSided": true,
      "emissiveFactor": [
        0,
        0,
        0
      ],
      "name": "RocciaMura_03_Mat",
      "pbrMetallicRoughness": {
        "baseColorFactor": [
          0.22462299999999999,
          0.22462299999999999,
          0.22462299999999999,
          1
        ],
        "metallicFactor": 0,
        "roughnessFactor": 1
      }
    }
  ],
  "meshes": [
    {
      "name": "polySurface102_RocciaMura_01_Mat_0",
      "primitives": [
        {
          "attributes": {
            "NORMAL": 1,
            "POSITION": 0,
            "TANGENT": 2
          },
          "indices": 3,
          "material": 0,
          "mode": 4
        }
      ]
    },
    {
      "name": "polySurface102_RocciaMura_05_Mat_0",
      "primitives": [
        {
          "attributes": {
            "NORMAL": 5,
            "POSITION": 4,
            "TANGENT": 6
          },
          "indices": 7,
          "material": 1,
          "mode": 4
        }
      ]
    },
    {
      "name": "polySurface102_Passerella_Legno_TopMura_TileMura_0",
      "primitives": [
        {
          "attributes": {
            "NORMAL": 9,
            "POSITION": 8,
            "TANGENT": 10,
            "TEXCOORD_0": 11
          },
          "indices": 12,
          "material": 2,
          "mode": 4
        }
      ]
    },
    {
      "name": "polySurface102_Mura_01_TileMat_0",
      "primitives": [
        {
          "attributes": {
            "NORMAL": 14,
            "POSITION": 13,
            "TANGENT": 15,
            "TEXCOORD_0": 16
          },
          "indices": 17,
          "material": 3,
          "mode": 4
        }
      ]
    },
    {
      "name": "polySurface102_Legno02_Mat_0",
      "primitives": [
        {
          "attributes": {
            "NORMAL": 19,
            "POSITION": 18,
            "TANGENT": 20
          },
          "indices": 21,
          "material": 4,
          "mode": 4
        }
      ]
    },
    {
      "name": "polySurface102_RocciaMura_04_Mat_0",
      "primitives": [
        {
          "attributes": {
            "NORMAL": 23,
            "POSITION": 22,
            "TANGENT": 24
          },
          "indices": 25,
          "material": 5,
          "mode": 4
        }
      ]
    },
    {
      "name": "polySurface102_RocciaMura_03_Mat_0",
      "primitives": [
        {
          "attributes": {
            "NORMAL": 27,
            "POSITION": 26,
            "TANGENT": 28
          },
          "indices": 29,
          "material": 6,
          "mode": 4
        }
      ]
    }
  ],
  "nodes": [
    {
      "children": [
        1
      ],
      "name": "RootNode (gltf orientation matrix)",
      "rotation": [
        -0.70710678118654746,
        -0,
        -0,
        0.70710678118654757
      ]
    },
    {
      "children": [
        2
      ],
      "name": "RootNode (model correction matrix)"
    },
    {
      "children": [
        3
      ],
      "matrix": [
        1,
        0,
        0,
        0,
        0,
        0,
        1,
        0,
        0,
        -1,
        0,
        0,
        0,
        0,
        0,
        1
      ],
      "name": "649c23bd37c546f281b8267f6c5780a7.fbx"
    },
    {
      "children": [
        4
      ],
      "name": "RootNode"
    },
    {
      "children": [
        5,
        6,
        7,
        8,
        9,
        10,
        11
      ],
      "matrix": [
        0.0099999997764825821,
        0,
        0,
        0,
        0,
        0.0099999997764825821,
        0,
        0,
        0,
        0,
        0.0099999997764825821,
        0,
        0,
        0,
        0,
        1
      ],
      "name": "polySurface102"
    },
    {
      "mesh": 0,
      "name": "polySurface102_RocciaMura_01_Mat_0"
    },
    {
      "mesh": 1,
      "name": "polySurface102_RocciaMura_05_Mat_0"
    },
    {
      "mesh": 2,
      "name": "polySurface102_Passerella_Legno_TopMura_TileMura_0"
    },
    {
      "mesh": 3,
      "name": "polySurface102_Mura_01_TileMat_0"
    },
    {
      "mesh": 4,
      "name": "polySurface102_Legno02_Mat_0"
    },
    {
      "mesh": 5,
      "name": "polySurface102_RocciaMura_04_Mat_0"
    },
    {
      "mesh": 6,
      "name": "polySurface102_RocciaMura_03_Mat_0"
    }
  ],
  "samplers": [
    {
      "magFilter": 9729,
      "minFilter": 9987,
      "wrapS": 10497,
      "wrapT": 10497
    }
  ],
  "scene": 0,
  "scenes": [
    {
      "name": "OSG_Scene",
      "nodes": [
        0
      ]
    }
  ],
  "textures": [
    {
      "sampler": 0,
      "source": 0
    },
    {
      "sampler": 0,
      "source": 1
    }
  ]
}

