{
  "accessors": [
    {
      "bufferView": 2,
      "componentType": 5126,
      "count": 3285,
      "max": [
        476.49771118164062,
        1806.896240234375,
        506.50384521484375
      ],
      "min": [
        -482.3104248046875,
        -0.8530426025390625,
        -506.50384521484375
      ],
      "type": "VEC3"
    },
    {
      "bufferView": 2,
      "byteOffset": 39420,
      "componentType": 5126,
      "count": 3285,
      "max": [
        1,
        1,
        1
      ],
      "min": [
        -1,
        -1,
        -1
      ],
      "type": "VEC3"
    },
    {
      "bufferView": 3,
      "componentType": 5126,
      "count": 3285,
      "max": [
        1,
        1,
        1,
        1
      ],
      "min": [
        -1,
        -1,
        -1,
        -1
      ],
      "type": "VEC4"
    },
    {
      "bufferView": 0,
      "componentType": 5125,
      "count": 5052,
      "max": [
        3284
      ],
      "min": [
        0
      ],
      "type": "SCALAR"
    },
    {
      "bufferView": 2,
      "byteOffset": 78840,
      "componentType": 5126,
      "count": 720,
      "max": [
        483.1453857421875,
        1578.595703125,
        406.55767822265625
      ],
      "min": [
        -483.1455078125,
        87.7537841796875,
        -471.52639770507812
      ],
      "type": "VEC3"
    },
    {
      "bufferView": 2,
      "byteOffset": 87480,
      "componentType": 5126,
      "count": 720,
      "max": [
        0.84785270690917969,
        1,
        0.84785169363021851
      ],
      "min": [
        -0.84785366058349609,
        -1,
        -0.84785157442092896
      ],
      "type": "VEC3"
    },
    {
      "bufferView": 3,
      "byteOffset": 52560,
      "componentType": 5126,
      "count": 720,
      "max": [
        0.84785282611846924,
        1,
        0.84785372018814087,
        1
      ],
      "min": [
        -0.84785282611846924,
        -1,
        -0.84785372018814087,
        1
      ],
      "type": "VEC4"
    },
    {
      "bufferView": 0,
      "byteOffset": 20208,
      "componentType": 5125,
      "count": 1080,
      "max": [
        719
      ],
      "min": [
        0
      ],
      "type": "SCALAR"
    },
    {
      "bufferView": 2,
      "byteOffset": 96120,
      "componentType": 5126,
      "count": 85,
      "max": [
        411.4078369140625,
        2214.384521484375,
        345.82843017578125
      ],
      "min": [
        -420.0325927734375,
        -7.28298255125992e-05,
        -411.14044189453125
      ],
      "type": "VEC3"
    },
    {
      "bufferView": 2,
      "byteOffset": 97140,
      "componentType": 5126,
      "count": 85,
      "max": [
        1,
        3.2893120760491001e-07,
        1
      ],
      "min": [
        -1,
        -1.0964341612407225e-07,
        -1
      ],
      "type": "VEC3"
    },
    {
      "bufferView": 3,
      "byteOffset": 64080,
      "componentType": 5126,
      "count": 85,
      "max": [
        1,
        0.60001134872436523,
        1,
        1
      ],
      "min": [
        -1,
        -0.23744182288646698,
        -1,
        1
      ],
      "type": "VEC4"
    },
    {
      "bufferView": 1,
      "componentType": 5126,
      "count": 85,
      "max": [
        4.5545291900634766,
        2.7344775199890137
      ],
      "min": [
        -3.274592399597168,
        -1.6650781631469727
      ],
      "type": "VEC2"
    },
    {
      "bufferView": 0,
      "byteOffset": 24528,
      "componentType": 5125,
      "count": 147,
      "max": [
        84
      ],
      "min": [
        0
      ],
      "type": "SCALAR"
    },
    {
      "bufferView": 2,
      "byteOffset": 98160,
      "componentType": 5126,
      "count": 234,
      "max": [
        443.3712158203125,
        1716.0791015625,
        490.06829833984375
      ],
      "min": [
        -451.99545288085938,
        803.366455078125,
        -484.93988037109375
      ],
      "type": "VEC3"
    },
    {
      "bufferView": 2,
      "byteOffset": 100968,
      "componentType": 5126,
      "count": 234,
      "max": [
        1,
        1,
        1
      ],
      "min": [
        -1,
        -1,
        -0.86280912160873413
      ],
      "type": "VEC3"
    },
    {
      "bufferView": 3,
      "byteOffset": 65440,
      "componentType": 5126,
      "count": 234,
      "max": [
        1,
        2.3697138828993047e-07,
        1,
        1
      ],
      "min": [
        -1,
        -0.71875470876693726,
        -1,
        -1
      ],
      "type": "VEC4"
    },
    {
      "bufferView": 0,
      "byteOffset": 25116,
      "componentType": 5125,
      "count": 534,
      "max": [
        233
      ],
      "min": [
        0
      ],
      "type": "SCALAR"
    },
    {
      "bufferView": 2,
      "byteOffset": 103776,
      "componentType": 5126,
      "count": 96,
      "max": [
        336.09246826171875,
        2278.937255859375,
        216.97346496582031
      ],
      "min": [
        -253.38046264648438,
        1827.856201171875,
        -227.67399597167969
      ],
      "type": "VEC3"
    },
    {
      "bufferView": 2,
      "byteOffset": 104928,
      "componentType": 5126,
      "count": 96,
      "max": [
        0.98845946788787842,
        1,
        0.98845893144607544
      ],
      "min": [
        -0.98845869302749634,
        -1,
        -0.98845887184143066
      ],
      "type": "VEC3"
    },
    {
      "bufferView": 3,
      "byteOffset": 69184,
      "componentType": 5126,
      "count": 96,
      "max": [
        1,
        0,
        0,
        1
      ],
      "min": [
        -1,
        0,
        -1,
        1
      ],
      "type": "VEC4"
    },
    {
      "bufferView": 0,
      "byteOffset": 27252,
      "componentType": 5125,
      "count": 156,
      "max": [
        95
      ],
      "min": [
        0
      ],
      "type": "SCALAR"
    },
    {
      "bufferView": 2,
      "byteOffset": 106080,
      "componentType": 5126,
      "count": 8,
      "max": [
        304.33355712890625,
        2248.391845703125,
        185.21369934082031
      ],
      "min": [
        -221.62089538574219,
        1866.5089111328125,
        -195.91471862792969
      ],
      "type": "VEC3"
    },
    {
      "bufferView": 2,
      "byteOffset": 106176,
      "componentType": 5126,
      "count": 8,
      "max": [
        0,
        1,
        0
      ],
      "min": [
        0,
        1,
        0
      ],
      "type": "VEC3"
    },
    {
      "bufferView": 3,
      "byteOffset": 70720,
      "componentType": 5126,
      "count": 8,
      "max": [
        0,
        0,
        -1,
        1
      ],
      "min": [
        0,
        0,
        -1,
        1
      ],
      "type": "VEC4"
    },
    {
      "bufferView": 0,
      "byteOffset": 27876,
      "componentType": 5125,
      "count": 12,
      "max": [
        7
      ],
      "min": [
        0
      ],
      "type": "SCALAR"
    },
    {
      "bufferView": 2,
      "byteOffset": 106272,
      "componentType": 5126,
      "count": 4,
      "max": [
        278.58160400390625,
        237.08995056152344,
        239.46046447753906
      ],
      "min": [
        105.42247009277344,
        -1.9541474580764771,
        239.46046447753906
      ],
      "type": "VEC3"
    },
    {
      "bufferView": 2,
      "byteOffset": 106320,
      "componentType": 5126,
      "count": 4,
      "max": [
        0,
        0,
        1
      ],
      "min": [
        0,
        0,
        1
      ],
      "type": "VEC3"
    },
    {
      "bufferView": 3,
      "byteOffset": 70848,
      "componentType": 5126,
      "count": 4,
      "max": [
        1,
        0,
        0,
        1
      ],
      "min": [
        1,
        0,
        0,
        1
      ],
      "type": "VEC4"
    },
    {
      "bufferView": 0,
      "byteOffset": 27924,
      "componentType": 5125,
      "count": 6,
      "max": [
        3
      ],
      "min": [
        0
      ],
      "type": "SCALAR"
    },
    {
      "bufferView": 2,
      "byteOffset": 106368,
      "componentType": 5126,
      "count": 44,
      "max": [
        425.64898681640625,
        1578.595703125,
        351.36175537109375
      ],
      "min": [
        -424.75982666015625,
        85.799583435058594,
        -413.14068603515625
      ],
      "type": "VEC3"
    },
    {
      "bufferView": 2,
      "byteOffset": 106896,
      "componentType": 5126,
      "count": 44,
      "max": [
        1,
        0,
        1
      ],
      "min": [
        -1,
        0,
        -1
      ],
      "type": "VEC3"
    },
    {
      "bufferView": 3,
      "byteOffset": 70912,
      "componentType": 5126,
      "count": 44,
      "max": [
        1,
        0,
        1,
        1
      ],
      "min": [
        -1,
        0,
        -1,
        1
      ],
      "type": "VEC4"
    },
    {
      "bufferView": 0,
      "byteOffset": 27948,
      "componentType": 5125,
      "count": 66,
      "max": [
        43
      ],
      "min": [
        0
      ],
      "type": "SCALAR"
    },
    {
      "bufferView": 2,
      "byteOffset": 107424,
      "componentType": 5126,
      "count": 20,
      "max": [
        256.96066284179688,
        91.67266845703125,
        260.82696533203125
      ],
      "min": [
        243.18154907226562,
        77.893539428710938,
        247.04786682128906
      ],
      "type": "VEC3"
    },
    {
      "bufferView": 2,
      "byteOffset": 107664,
      "componentType": 5126,
      "count": 20,
      "max": [
        1,
        1,
        1
      ],
      "min": [
        -1,
        -1,
        0
      ],
      "type": "VEC3"
    },
    {
      "bufferView": 3,
      "byteOffset": 71616,
      "componentType": 5126,
      "count": 20,
      "max": [
        1,
        0,
        1,
        1
      ],
      "min": [
        0,
        0,
        -1,
        1
      ],
      "type": "VEC4"
    },
    {
      "bufferView": 0,
      "byteOffset": 28212,
      "componentType": 5125,
      "count": 30,
      "max": [
        19
      ],
      "min": [
        0
      ],
      "type": "SCALAR"
    }
  ],
  "asset": {
    "extras": {
      "author": "BlackSpire (https://sketchfab.com/blackspire)",
      "license": "CC-BY-4.0 (http://creativecommons.org/licenses/by/4.0/)",
      "source": "https://sketchfab.com/models/01c5b846e7454e5b91cc49b44ac05103",
      "title": "Town_House_02"
    },
    "generator": "Sketchfab-3.18.7",
    "version": "2.0"
  },
  "bufferViews": [
    {
      "buffer": 0,
      "byteLength": 28332,
      "byteOffset": 0,
      "name": "floatBufferViews",
      "target": 34963
    },
    {
      "buffer": 0,
      "byteLength": 680,
      "byteOffset": 28332,
      "byteStride": 8,
      "name": "floatBufferViews",
      "target": 34962
    },
    {
      "buffer": 0,
      "byteLength": 107904,
      "byteOffset": 29012,
      "byteStride": 12,
      "name": "floatBufferViews",
      "target": 34962
    },
    {
      "buffer": 0,
      "byteLength": 71936,
      "byteOffset": 136916,
      "byteStride": 16,
      "name": "floatBufferViews",
      "target": 34962
    }
  ],
  "buffers": [
    {
      "byteLength": 208852,
      "uri": "scene.bin"
    }
  ],
  "images": [
    {
      "uri": "textures/Mura_03_TileMat_baseColor.jpg"
    }
  ],
  "materials": [
    {
      "doubleSided": true,
      "emissiveFactor": [
        0,
        0,
        0
      ],
      "name": "Legno02_Mat",
      "pbrMetallicRoughness": {
        "baseColorFactor": [
          0.42199999999999999,
          0.26475500000000002,
          0.12997600000000001,
          1
        ],
        "metallicFactor": 0,
        "roughnessFactor": 1
      }
    },
    {
      "doubleSided": true,
      "emissiveFactor": [
        0,
        0,
        0
      ],
      "name": "Legno01_Mat",
      "pbrMetallicRoughness": {
        "baseColorFactor": [
          0.23799999999999999,
          0.157776,
          0.09758,
          1
        ],
        "metallicFactor": 0,
        "roughnessFactor": 1
      }
    },
    {
      "doubleSided": true,
      "emissiveFactor": [
        0,
        0,
        0
      ],
      "name": "Mura_03_TileMat",
      "pbrMetallicRoughness": {
        "baseColorFactor": [
          1,
          1,
          1,
          1
        ],
        "baseColorTexture": {
          "index": 0,
          "texCoord": 0
        },
        "metallicFactor": 0,
        "roughnessFactor": 1
      }
    },
    {
      "doubleSided": true,
      "emissiveFactor": [
        0,
        0,
        0
      ],
      "name": "Casa_01_Mat",
      "pbrMetallicRoughness": {
        "baseColorFactor": [
          0.70199999999999996,
          0.48656100000000002,
          0.26114399999999999,
          1
        ],
        "metallicFactor": 0,
        "roughnessFactor": 1
      }
    },
    {
      "doubleSided": true,
      "emissiveFactor": [
        0,
        0,
        0
      ],
      "name": "RocciaMura_02_Mat",
      "pbrMetallicRoughness": {
        "baseColorFactor": [
          0.21138199999999999,
          0.21138199999999999,
          0.21138199999999999,
          1
        ],
        "metallicFactor": 0,
        "roughnessFactor": 1
      }
    },
    {
      "doubleSided": true,
      "emissiveFactor": [
        0,
        0,
        0
      ],
      "name": "Zone_Ombra_Mat",
      "pbrMetallicRoughness": {
        "baseColorFactor": [
          0.0248963,
          0.0248963,
          0.0248963,
          1
        ],
        "metallicFactor": 0,
        "roughnessFactor": 1
      }
    },
    {
      "doubleSided": true,
      "emissiveFactor": [
        0,
        0,
        0
      ],
      "name": "Legno04_Mat",
      "pbrMetallicRoughness": {
        "baseColorFactor": [
          0.36585400000000001,
          0.247948,
          0.15947700000000001,
          1
        ],
        "metallicFactor": 0,
        "roughnessFactor": 1
      }
    },
    {
      "doubleSided": true,
      "emissiveFactor": [
        0,
        0,
        0
      ],
      "name": "Glass_01_Mat",
      "pbrMetallicRoughness": {
        "baseColorFactor": [
          0.224361,
          0.30296200000000001,
          0.34750199999999998,
          1
        ],
        "metallicFactor": 0,
        "roughnessFactor": 1
      }
    },
    {
      "doubleSided": true,
      "emissiveFactor": [
        0,
        0,
        0
      ],
      "name": "Ferro03_Mat",
      "pbrMetallicRoughness": {
        "baseColorFactor": [
          0.27200000000000002,
          0.27200000000000002,
          0.27200000000000002,
          1
        ],
        "metallicFactor": 0,
        "roughnessFactor": 1
      }
    }
  ],
  "meshes": [
    {
      "name": "pCube3428_Legno02_Mat_0",
      "primitives": [
        {
          "attributes": {
            "NORMAL": 1,
            "POSITION": 0,
            "TANGENT": 2
          },
          "indices": 3,
          "material": 0,
          "mode": 4
        }
      ]
    },
    {
      "name": "pCube3428_Legno01_Mat_0",
      "primitives": [
        {
          "attributes": {
            "NORMAL": 5,
            "POSITION": 4,
            "TANGENT": 6
          },
          "indices": 7,
          "material": 1,
          "mode": 4
        }
      ]
    },
    {
      "name": "pCube3428_Mura_03_TileMat_0",
      "primitives": [
        {
          "attributes": {
            "NORMAL": 9,
            "POSITION": 8,
            "TANGENT": 10,
            "TEXCOORD_0": 11
          },
          "indices": 12,
          "material": 2,
          "mode": 4
        }
      ]
    },
    {
      "name": "pCube3428_Casa_01_Mat_0",
      "primitives": [
        {
          "attributes": {
            "NORMAL": 14,
            "POSITION": 13,
            "TANGENT": 15
          },
          "indices": 16,
          "material": 3,
          "mode": 4
        }
      ]
    },
    {
      "name": "pCube3428_RocciaMura_02_Mat_0",
      "primitives": [
        {
          "attributes": {
            "NORMAL": 18,
            "POSITION": 17,
            "TANGENT": 19
          },
          "indices": 20,
          "material": 4,
          "mode": 4
        }
      ]
    },
    {
      "name": "pCube3428_Zone_Ombra_Mat_0",
      "primitives": [
        {
          "attributes": {
            "NORMAL": 22,
            "POSITION": 21,
            "TANGENT": 23
          },
          "indices": 24,
          "material": 5,
          "mode": 4
        }
      ]
    },
    {
      "name": "pCube3428_Legno04_Mat_0",
      "primitives": [
        {
          "attributes": {
            "NORMAL": 26,
            "POSITION": 25,
            "TANGENT": 27
          },
          "indices": 28,
          "material": 6,
          "mode": 4
        }
      ]
    },
    {
      "name": "pCube3428_Glass_01_Mat_0",
      "primitives": [
        {
          "attributes": {
            "NORMAL": 30,
            "POSITION": 29,
            "TANGENT": 31
          },
          "indices": 32,
          "material": 7,
          "mode": 4
        }
      ]
    },
    {
      "name": "pCube3428_Ferro03_Mat_0",
      "primitives": [
        {
          "attributes": {
            "NORMAL": 34,
            "POSITION": 33,
            "TANGENT": 35
          },
          "indices": 36,
          "material": 8,
          "mode": 4
        }
      ]
    }
  ],
  "nodes": [
    {
      "children": [
        1
      ],
      "name": "RootNode (gltf orientation matrix)",
      "rotation": [
        -0.70710678118654746,
        -0,
        -0,
        0.70710678118654757
      ]
    },
    {
      "children": [
        2
      ],
      "name": "RootNode (model correction matrix)"
    },
    {
      "children": [
        3
      ],
      "matrix": [
        1,
        0,
        0,
        0,
        0,
        0,
        1,
        0,
        0,
        -1,
        0,
        0,
        0,
        0,
        0,
        1
      ],
      "name": "b1657379514048448c1f224829c35ee9.fbx"
    },
    {
      "children": [
        4
      ],
      "name": "RootNode"
    },
    {
      "children": [
        5,
        6,
        7,
        8,
        9,
        10,
        11,
        12,
        13
      ],
      "matrix": [
        0.0099999997764825821,
        0,
        0,
        0,
        0,
        0.0099999997764825821,
        0,
        0,
        0,
        0,
        0.0099999997764825821,
        0,
        0,
        0,
        0,
        1
      ],
      "name": "pCube3428"
    },
    {
      "mesh": 0,
      "name": "pCube3428_Legno02_Mat_0"
    },
    {
      "mesh": 1,
      "name": "pCube3428_Legno01_Mat_0"
    },
    {
      "mesh": 2,
      "name": "pCube3428_Mura_03_TileMat_0"
    },
    {
      "mesh": 3,
      "name": "pCube3428_Casa_01_Mat_0"
    },
    {
      "mesh": 4,
      "name": "pCube3428_RocciaMura_02_Mat_0"
    },
    {
      "mesh": 5,
      "name": "pCube3428_Zone_Ombra_Mat_0"
    },
    {
      "mesh": 6,
      "name": "pCube3428_Legno04_Mat_0"
    },
    {
      "mesh": 7,
      "name": "pCube3428_Glass_01_Mat_0"
    },
    {
      "mesh": 8,
      "name": "pCube3428_Ferro03_Mat_0"
    }
  ],
  "samplers": [
    {
      "magFilter": 9729,
      "minFilter": 9987,
      "wrapS": 10497,
      "wrapT": 10497
    }
  ],
  "scene": 0,
  "scenes": [
    {
      "name": "OSG_Scene",
      "nodes": [
        0
      ]
    }
  ],
  "textures": [
    {
      "sampler": 0,
      "source": 0
    }
  ]
}

