{
  "accessors": [
    {
      "bufferView": 2,
      "componentType": 5126,
      "count": 152,
      "max": [
        -2.10601806640625,
        158.40963745117188,
        24.58837890625
      ],
      "min": [
        -53.35540771484375,
        109.14376068115234,
        -20.37322998046875
      ],
      "type": "VEC3"
    },
    {
      "bufferView": 2,
      "byteOffset": 1824,
      "componentType": 5126,
      "count": 152,
      "max": [
        0.98788762092590332,
        0.44073694944381714,
        0.9844660758972168
      ],
      "min": [
        -0.98789024353027344,
        -0.99778449535369873,
        -0.98446899652481079
      ],
      "type": "VEC3"
    },
    {
      "bufferView": 3,
      "componentType": 5126,
      "count": 152,
      "max": [
        0.98473566770553589,
        0.1259416937828064,
        0.97212439775466919,
        1
      ],
      "min": [
        -0.98473560810089111,
        -0.12594079971313477,
        -0.97212427854537964,
        1
      ],
      "type": "VEC4"
    },
    {
      "bufferView": 0,
      "componentType": 5125,
      "count": 216,
      "max": [
        151
      ],
      "min": [
        0
      ],
      "type": "SCALAR"
    },
    {
      "bufferView": 2,
      "byteOffset": 3648,
      "componentType": 5126,
      "count": 1114,
      "max": [
        13.72808837890625,
        170.14736938476562,
        47.3951416015625
      ],
      "min": [
        -63.97271728515625,
        0.77277374267578125,
        -52.7984619140625
      ],
      "type": "VEC3"
    },
    {
      "bufferView": 2,
      "byteOffset": 17016,
      "componentType": 5126,
      "count": 1114,
      "max": [
        0.99883067607879639,
        1,
        1
      ],
      "min": [
        -0.99160534143447876,
        -1,
        -0.99328911304473877
      ],
      "type": "VEC3"
    },
    {
      "bufferView": 3,
      "byteOffset": 2432,
      "componentType": 5126,
      "count": 1114,
      "max": [
        1,
        0.97383111715316772,
        1,
        1
      ],
      "min": [
        -0.9607536792755127,
        -0.99973201751708984,
        -1,
        -1
      ],
      "type": "VEC4"
    },
    {
      "bufferView": 0,
      "byteOffset": 864,
      "componentType": 5125,
      "count": 1896,
      "max": [
        1113
      ],
      "min": [
        0
      ],
      "type": "SCALAR"
    },
    {
      "bufferView": 2,
      "byteOffset": 30384,
      "componentType": 5126,
      "count": 235,
      "max": [
        -1.37921142578125,
        140.8626708984375,
        39.0792236328125
      ],
      "min": [
        -54.1846923828125,
        17.563400268554688,
        -41.0450439453125
      ],
      "type": "VEC3"
    },
    {
      "bufferView": 2,
      "byteOffset": 33204,
      "componentType": 5126,
      "count": 235,
      "max": [
        0.99734014272689819,
        0.93160688877105713,
        1
      ],
      "min": [
        -0.99744445085525513,
        -0.9978291392326355,
        -1
      ],
      "type": "VEC3"
    },
    {
      "bufferView": 3,
      "byteOffset": 20256,
      "componentType": 5126,
      "count": 235,
      "max": [
        0.99308550357818604,
        0.78914308547973633,
        0.73563212156295776,
        1
      ],
      "min": [
        -0.99301302433013916,
        -0.99590784311294556,
        -1,
        -1
      ],
      "type": "VEC4"
    },
    {
      "bufferView": 0,
      "byteOffset": 8448,
      "componentType": 5125,
      "count": 372,
      "max": [
        234
      ],
      "min": [
        0
      ],
      "type": "SCALAR"
    },
    {
      "bufferView": 2,
      "byteOffset": 36024,
      "componentType": 5126,
      "count": 96,
      "max": [
        1.60577392578125,
        114.65631866455078,
        29.27099609375
      ],
      "min": [
        -57.067138671875,
        57.428661346435547,
        -22.7183837890625
      ],
      "type": "VEC3"
    },
    {
      "bufferView": 2,
      "byteOffset": 37176,
      "componentType": 5126,
      "count": 96,
      "max": [
        1,
        0.97064119577407837,
        0.97063833475112915
      ],
      "min": [
        -1,
        -0.97064119577407837,
        -0.97063559293746948
      ],
      "type": "VEC3"
    },
    {
      "bufferView": 3,
      "byteOffset": 24016,
      "componentType": 5126,
      "count": 96,
      "max": [
        1,
        0.44509744644165039,
        0.97063523530960083,
        1
      ],
      "min": [
        -0.86217528581619263,
        -0.44509655237197876,
        -0.97063523530960083,
        -1
      ],
      "type": "VEC4"
    },
    {
      "bufferView": 0,
      "byteOffset": 9936,
      "componentType": 5125,
      "count": 144,
      "max": [
        95
      ],
      "min": [
        0
      ],
      "type": "SCALAR"
    },
    {
      "bufferView": 2,
      "byteOffset": 38328,
      "componentType": 5126,
      "count": 66,
      "max": [
        -23.337890625,
        186.653076171875,
        2.79730224609375
      ],
      "min": [
        -32.12353515625,
        168.10452270507812,
        -5.99273681640625
      ],
      "type": "VEC3"
    },
    {
      "bufferView": 2,
      "byteOffset": 39120,
      "componentType": 5126,
      "count": 66,
      "max": [
        0.7086179256439209,
        1,
        0.70582538843154907
      ],
      "min": [
        -0.70862895250320435,
        -1,
        -0.70590388774871826
      ],
      "type": "VEC3"
    },
    {
      "bufferView": 3,
      "byteOffset": 25552,
      "componentType": 5126,
      "count": 66,
      "max": [
        0.70687621831893921,
        0.93694746494293213,
        0.70733875036239624,
        1
      ],
      "min": [
        -0.70699977874755859,
        -0.93691837787628174,
        -0.70721864700317383,
        -1
      ],
      "type": "VEC4"
    },
    {
      "bufferView": 0,
      "byteOffset": 10512,
      "componentType": 5125,
      "count": 108,
      "max": [
        65
      ],
      "min": [
        0
      ],
      "type": "SCALAR"
    },
    {
      "bufferView": 2,
      "byteOffset": 39912,
      "componentType": 5126,
      "count": 161,
      "max": [
        -4.55523681640625,
        102.29409027099609,
        47.447998046875
      ],
      "min": [
        -42.10455322265625,
        55.238716125488281,
        -13.0938720703125
      ],
      "type": "VEC3"
    },
    {
      "bufferView": 2,
      "byteOffset": 41844,
      "componentType": 5126,
      "count": 161,
      "max": [
        1,
        1,
        0.97868895530700684
      ],
      "min": [
        -1,
        -1,
        -0.97868895530700684
      ],
      "type": "VEC3"
    },
    {
      "bufferView": 3,
      "byteOffset": 26608,
      "componentType": 5126,
      "count": 161,
      "max": [
        0.99889802932739258,
        0.97413539886474609,
        0.9486844539642334,
        1
      ],
      "min": [
        -0.98647302389144897,
        -0.99711281061172485,
        -0.9486844539642334,
        -1
      ],
      "type": "VEC4"
    },
    {
      "bufferView": 0,
      "byteOffset": 10944,
      "componentType": 5125,
      "count": 252,
      "max": [
        160
      ],
      "min": [
        0
      ],
      "type": "SCALAR"
    },
    {
      "bufferView": 2,
      "byteOffset": 43776,
      "componentType": 5126,
      "count": 46,
      "max": [
        10.92889404296875,
        120.90151214599609,
        50.59765625
      ],
      "min": [
        -41.83148193359375,
        24.780300140380859,
        -13.802490234375
      ],
      "type": "VEC3"
    },
    {
      "bufferView": 2,
      "byteOffset": 44328,
      "componentType": 5126,
      "count": 46,
      "max": [
        0.9560699462890625,
        0.11188601702451706,
        0.99676847457885742
      ],
      "min": [
        -0.9560699462890625,
        -0.098312951624393463,
        -0.941902756690979
      ],
      "type": "VEC3"
    },
    {
      "bufferView": 3,
      "byteOffset": 29184,
      "componentType": 5126,
      "count": 46,
      "max": [
        0.98636984825134277,
        0.94355911016464233,
        0.96194392442703247,
        1
      ],
      "min": [
        0.27320054173469543,
        -0.92882543802261353,
        -0.96194398403167725,
        -1
      ],
      "type": "VEC4"
    },
    {
      "bufferView": 1,
      "componentType": 5126,
      "count": 46,
      "max": [
        0.69792318344116211,
        0.88170981407165527
      ],
      "min": [
        0.13425406813621521,
        0.12498170137405396
      ],
      "type": "VEC2"
    },
    {
      "bufferView": 0,
      "byteOffset": 11952,
      "componentType": 5125,
      "count": 84,
      "max": [
        45
      ],
      "min": [
        0
      ],
      "type": "SCALAR"
    },
    {
      "bufferView": 2,
      "byteOffset": 44880,
      "componentType": 5126,
      "count": 62,
      "max": [
        16.9544677734375,
        127.26772308349609,
        52.7984619140625
      ],
      "min": [
        -49.0208740234375,
        28.631984710693359,
        20.522705078125
      ],
      "type": "VEC3"
    },
    {
      "bufferView": 2,
      "byteOffset": 45624,
      "componentType": 5126,
      "count": 62,
      "max": [
        0.90742623805999756,
        0.98620539903640747,
        0.99888330698013306
      ],
      "min": [
        -0.9074668288230896,
        -0.98620182275772095,
        -0.99448853731155396
      ],
      "type": "VEC3"
    },
    {
      "bufferView": 3,
      "byteOffset": 29920,
      "componentType": 5126,
      "count": 62,
      "max": [
        0.9074292778968811,
        0.99753391742706299,
        0.67674380540847778,
        1
      ],
      "min": [
        -0.92246735095977783,
        -0.9879869818687439,
        -0.45746862888336182,
        -1
      ],
      "type": "VEC4"
    },
    {
      "bufferView": 0,
      "byteOffset": 12288,
      "componentType": 5125,
      "count": 120,
      "max": [
        61
      ],
      "min": [
        0
      ],
      "type": "SCALAR"
    },
    {
      "bufferView": 2,
      "byteOffset": 46368,
      "componentType": 5126,
      "count": 20,
      "max": [
        -36.07366943359375,
        78.730209350585938,
        -31.39044189453125
      ],
      "min": [
        -117.19134521484375,
        54.996826171875,
        -45.69268798828125
      ],
      "type": "VEC3"
    },
    {
      "bufferView": 2,
      "byteOffset": 46608,
      "componentType": 5126,
      "count": 20,
      "max": [
        0.20510339736938477,
        0.89626902341842651,
        0.9038769006729126
      ],
      "min": [
        -0.96418243646621704,
        -0.89626699686050415,
        -0.90388983488082886
      ],
      "type": "VEC3"
    },
    {
      "bufferView": 3,
      "byteOffset": 30912,
      "componentType": 5126,
      "count": 20,
      "max": [
        0.20509426295757294,
        0.89626616239547729,
        0.90389072895050049,
        1
      ],
      "min": [
        -0.20509953796863556,
        -0.89626818895339966,
        -0.90389180183410645,
        1
      ],
      "type": "VEC4"
    },
    {
      "bufferView": 0,
      "byteOffset": 12768,
      "componentType": 5125,
      "count": 30,
      "max": [
        19
      ],
      "min": [
        0
      ],
      "type": "SCALAR"
    },
    {
      "bufferView": 2,
      "byteOffset": 46848,
      "componentType": 5126,
      "count": 120,
      "max": [
        -30.884521484375,
        95.899253845214844,
        -21.415771484375
      ],
      "min": [
        -128.8076171875,
        52.890773773193359,
        -47.23931884765625
      ],
      "type": "VEC3"
    },
    {
      "bufferView": 2,
      "byteOffset": 48288,
      "componentType": 5126,
      "count": 120,
      "max": [
        0.96418279409408569,
        0.89626908302307129,
        0.95227569341659546
      ],
      "min": [
        -0.96418380737304688,
        -0.89626848697662354,
        -0.95227730274200439
      ],
      "type": "VEC3"
    },
    {
      "bufferView": 3,
      "byteOffset": 31232,
      "componentType": 5126,
      "count": 120,
      "max": [
        0.20509982109069824,
        0.89626973867416382,
        0.90389180183410645,
        1
      ],
      "min": [
        -0.20510604977607727,
        -0.89627814292907715,
        -0.90388995409011841,
        1
      ],
      "type": "VEC4"
    },
    {
      "bufferView": 0,
      "byteOffset": 12888,
      "componentType": 5125,
      "count": 180,
      "max": [
        119
      ],
      "min": [
        0
      ],
      "type": "SCALAR"
    }
  ],
  "asset": {
    "extras": {
      "author": "BlackSpire (https://sketchfab.com/blackspire)",
      "license": "CC-BY-4.0 (http://creativecommons.org/licenses/by/4.0/)",
      "source": "https://sketchfab.com/models/fcff3f35fc654c259e24710f89d1fcfd",
      "title": "Army_Soldier_73"
    },
    "generator": "Sketchfab-3.18.7",
    "version": "2.0"
  },
  "bufferViews": [
    {
      "buffer": 0,
      "byteLength": 13608,
      "byteOffset": 0,
      "name": "floatBufferViews",
      "target": 34963
    },
    {
      "buffer": 0,
      "byteLength": 368,
      "byteOffset": 13608,
      "byteStride": 8,
      "name": "floatBufferViews",
      "target": 34962
    },
    {
      "buffer": 0,
      "byteLength": 49728,
      "byteOffset": 13976,
      "byteStride": 12,
      "name": "floatBufferViews",
      "target": 34962
    },
    {
      "buffer": 0,
      "byteLength": 33152,
      "byteOffset": 63704,
      "byteStride": 16,
      "name": "floatBufferViews",
      "target": 34962
    }
  ],
  "buffers": [
    {
      "byteLength": 96856,
      "uri": "scene.bin"
    }
  ],
  "images": [
    {
      "uri": "textures/Stendardi_Mat3_baseColor.jpg"
    }
  ],
  "materials": [
    {
      "doubleSided": true,
      "emissiveFactor": [
        0,
        0,
        0
      ],
      "name": "PG_Mat02",
      "pbrMetallicRoughness": {
        "baseColorFactor": [
          0.56499999999999995,
          0.37039100000000003,
          0.19549,
          1
        ],
        "metallicFactor": 0,
        "roughnessFactor": 1
      }
    },
    {
      "doubleSided": true,
      "emissiveFactor": [
        0,
        0,
        0
      ],
      "name": "PG_Mat07",
      "pbrMetallicRoughness": {
        "baseColorFactor": [
          0.23577200000000001,
          0.23577200000000001,
          0.23577200000000001,
          1
        ],
        "metallicFactor": 0,
        "roughnessFactor": 1
      }
    },
    {
      "doubleSided": true,
      "emissiveFactor": [
        0,
        0,
        0
      ],
      "name": "PG_Mat01",
      "pbrMetallicRoughness": {
        "baseColorFactor": [
          0,
          0,
          0,
          1
        ],
        "metallicFactor": 0,
        "roughnessFactor": 1
      }
    },
    {
      "doubleSided": true,
      "emissiveFactor": [
        0,
        0,
        0
      ],
      "name": "lambert1",
      "pbrMetallicRoughness": {
        "baseColorFactor": [
          0.5,
          0.5,
          0.5,
          1
        ],
        "metallicFactor": 0,
        "roughnessFactor": 1
      }
    },
    {
      "doubleSided": true,
      "emissiveFactor": [
        0,
        0,
        0
      ],
      "name": "Gold_01_Mat",
      "pbrMetallicRoughness": {
        "baseColorFactor": [
          1,
          0.65385000000000004,
          0,
          1
        ],
        "metallicFactor": 0,
        "roughnessFactor": 1
      }
    },
    {
      "doubleSided": true,
      "emissiveFactor": [
        0,
        0,
        0
      ],
      "name": "PG_Mat04",
      "pbrMetallicRoughness": {
        "baseColorFactor": [
          0.37,
          0.20643,
          0.066229999999999997,
          1
        ],
        "metallicFactor": 0,
        "roughnessFactor": 1
      }
    },
    {
      "doubleSided": true,
      "emissiveFactor": [
        0,
        0,
        0
      ],
      "name": "Stendardi_Mat3",
      "pbrMetallicRoughness": {
        "baseColorFactor": [
          1,
          1,
          1,
          1
        ],
        "baseColorTexture": {
          "index": 0,
          "texCoord": 0
        },
        "metallicFactor": 0,
        "roughnessFactor": 1
      }
    },
    {
      "doubleSided": true,
      "emissiveFactor": [
        0,
        0,
        0
      ],
      "name": "Ferro01_Mat",
      "pbrMetallicRoughness": {
        "baseColorFactor": [
          0.21299999999999999,
          0.21299999999999999,
          0.21299999999999999,
          1
        ],
        "metallicFactor": 0,
        "roughnessFactor": 1
      }
    },
    {
      "doubleSided": true,
      "emissiveFactor": [
        0,
        0,
        0
      ],
      "name": "Legno03_Mat",
      "pbrMetallicRoughness": {
        "baseColorFactor": [
          0.157,
          0.12124,
          0.090589000000000003,
          1
        ],
        "metallicFactor": 0,
        "roughnessFactor": 1
      }
    },
    {
      "doubleSided": true,
      "emissiveFactor": [
        0,
        0,
        0
      ],
      "name": "Ferro04_Mat",
      "pbrMetallicRoughness": {
        "baseColorFactor": [
          0.032000000000000001,
          0.032000000000000001,
          0.032000000000000001,
          1
        ],
        "metallicFactor": 0,
        "roughnessFactor": 1
      }
    }
  ],
  "meshes": [
    {
      "name": "Soldier_73_PG_Mat02_0",
      "primitives": [
        {
          "attributes": {
            "NORMAL": 1,
            "POSITION": 0,
            "TANGENT": 2
          },
          "indices": 3,
          "material": 0,
          "mode": 4
        }
      ]
    },
    {
      "name": "Soldier_73_PG_Mat07_0",
      "primitives": [
        {
          "attributes": {
            "NORMAL": 5,
            "POSITION": 4,
            "TANGENT": 6
          },
          "indices": 7,
          "material": 1,
          "mode": 4
        }
      ]
    },
    {
      "name": "Soldier_73_PG_Mat01_0",
      "primitives": [
        {
          "attributes": {
            "NORMAL": 9,
            "POSITION": 8,
            "TANGENT": 10
          },
          "indices": 11,
          "material": 2,
          "mode": 4
        }
      ]
    },
    {
      "name": "Soldier_73_lambert1_0",
      "primitives": [
        {
          "attributes": {
            "NORMAL": 13,
            "POSITION": 12,
            "TANGENT": 14
          },
          "indices": 15,
          "material": 3,
          "mode": 4
        }
      ]
    },
    {
      "name": "Soldier_73_Gold_01_Mat_0",
      "primitives": [
        {
          "attributes": {
            "NORMAL": 17,
            "POSITION": 16,
            "TANGENT": 18
          },
          "indices": 19,
          "material": 4,
          "mode": 4
        }
      ]
    },
    {
      "name": "Soldier_73_PG_Mat04_0",
      "primitives": [
        {
          "attributes": {
            "NORMAL": 21,
            "POSITION": 20,
            "TANGENT": 22
          },
          "indices": 23,
          "material": 5,
          "mode": 4
        }
      ]
    },
    {
      "name": "Soldier_73_Stendardi_Mat3_0",
      "primitives": [
        {
          "attributes": {
            "NORMAL": 25,
            "POSITION": 24,
            "TANGENT": 26,
            "TEXCOORD_0": 27
          },
          "indices": 28,
          "material": 6,
          "mode": 4
        }
      ]
    },
    {
      "name": "Soldier_73_Ferro01_Mat_0",
      "primitives": [
        {
          "attributes": {
            "NORMAL": 30,
            "POSITION": 29,
            "TANGENT": 31
          },
          "indices": 32,
          "material": 7,
          "mode": 4
        }
      ]
    },
    {
      "name": "Soldier_73_Legno03_Mat_0",
      "primitives": [
        {
          "attributes": {
            "NORMAL": 34,
            "POSITION": 33,
            "TANGENT": 35
          },
          "indices": 36,
          "material": 8,
          "mode": 4
        }
      ]
    },
    {
      "name": "Soldier_73_Ferro04_Mat_0",
      "primitives": [
        {
          "attributes": {
            "NORMAL": 38,
            "POSITION": 37,
            "TANGENT": 39
          },
          "indices": 40,
          "material": 9,
          "mode": 4
        }
      ]
    }
  ],
  "nodes": [
    {
      "children": [
        1
      ],
      "name": "RootNode (gltf orientation matrix)",
      "rotation": [
        -0.70710678118654746,
        -0,
        -0,
        0.70710678118654757
      ]
    },
    {
      "children": [
        2
      ],
      "name": "RootNode (model correction matrix)"
    },
    {
      "children": [
        3
      ],
      "matrix": [
        1,
        0,
        0,
        0,
        0,
        0,
        1,
        0,
        0,
        -1,
        0,
        0,
        0,
        0,
        0,
        1
      ],
      "name": "f9fb961c1b214c21a798a249d54fc796.fbx"
    },
    {
      "children": [
        4
      ],
      "name": "RootNode"
    },
    {
      "children": [
        5
      ],
      "matrix": [
        0.0099999997764825821,
        0,
        0,
        0,
        0,
        0.0099999997764825821,
        0,
        0,
        0,
        0,
        0.0099999997764825821,
        0,
        0,
        0,
        0,
        1
      ],
      "name": "group675"
    },
    {
      "children": [
        6,
        7,
        8,
        9,
        10,
        11,
        12,
        13,
        14,
        15
      ],
      "name": "Soldier_73"
    },
    {
      "mesh": 0,
      "name": "Soldier_73_PG_Mat02_0"
    },
    {
      "mesh": 1,
      "name": "Soldier_73_PG_Mat07_0"
    },
    {
      "mesh": 2,
      "name": "Soldier_73_PG_Mat01_0"
    },
    {
      "mesh": 3,
      "name": "Soldier_73_lambert1_0"
    },
    {
      "mesh": 4,
      "name": "Soldier_73_Gold_01_Mat_0"
    },
    {
      "mesh": 5,
      "name": "Soldier_73_PG_Mat04_0"
    },
    {
      "mesh": 6,
      "name": "Soldier_73_Stendardi_Mat3_0"
    },
    {
      "mesh": 7,
      "name": "Soldier_73_Ferro01_Mat_0"
    },
    {
      "mesh": 8,
      "name": "Soldier_73_Legno03_Mat_0"
    },
    {
      "mesh": 9,
      "name": "Soldier_73_Ferro04_Mat_0"
    }
  ],
  "samplers": [
    {
      "magFilter": 9729,
      "minFilter": 9987,
      "wrapS": 10497,
      "wrapT": 10497
    }
  ],
  "scene": 0,
  "scenes": [
    {
      "name": "OSG_Scene",
      "nodes": [
        0
      ]
    }
  ],
  "textures": [
    {
      "sampler": 0,
      "source": 0
    }
  ]
}

