{
  "accessors": [
    {
      "bufferView": 2,
      "componentType": 5126,
      "count": 20,
      "max": [
        41.7255859375,
        145.7296142578125,
        187.11587524414062
      ],
      "min": [
        23.39892578125,
        37.49365234375,
        -99.32940673828125
      ],
      "type": "VEC3"
    },
    {
      "bufferView": 2,
      "byteOffset": 240,
      "componentType": 5126,
      "count": 20,
      "max": [
        0.99862140417098999,
        0.93837809562683105,
        0.34513428807258606
      ],
      "min": [
        -0.99862009286880493,
        -0.9383779764175415,
        -0.93707627058029175
      ],
      "type": "VEC3"
    },
    {
      "bufferView": 3,
      "componentType": 5126,
      "count": 20,
      "max": [
        0.99862122535705566,
        0.93839007616043091,
        0.34517133235931396,
        1
      ],
      "min": [
        -0.9986189603805542,
        -0.93837118148803711,
        -0.34513866901397705,
        1
      ],
      "type": "VEC4"
    },
    {
      "bufferView": 0,
      "componentType": 5125,
      "count": 30,
      "max": [
        19
      ],
      "min": [
        0
      ],
      "type": "SCALAR"
    },
    {
      "bufferView": 2,
      "byteOffset": 480,
      "componentType": 5126,
      "count": 980,
      "max": [
        41.08349609375,
        112.3992919921875,
        53.02752685546875
      ],
      "min": [
        -4.61328125,
        0,
        -56.3116455078125
      ],
      "type": "VEC3"
    },
    {
      "bufferView": 2,
      "byteOffset": 12240,
      "componentType": 5126,
      "count": 980,
      "max": [
        0.99869835376739502,
        1,
        0.9988783597946167
      ],
      "min": [
        -0.96587914228439331,
        -1,
        -0.99823671579360962
      ],
      "type": "VEC3"
    },
    {
      "bufferView": 3,
      "byteOffset": 320,
      "componentType": 5126,
      "count": 980,
      "max": [
        0.97107547521591187,
        0.98603266477584839,
        0.99339193105697632,
        1
      ],
      "min": [
        -0.96373581886291504,
        -0.99973279237747192,
        -0.99582803249359131,
        -1
      ],
      "type": "VEC4"
    },
    {
      "bufferView": 0,
      "byteOffset": 120,
      "componentType": 5125,
      "count": 1650,
      "max": [
        979
      ],
      "min": [
        0
      ],
      "type": "SCALAR"
    },
    {
      "bufferView": 2,
      "byteOffset": 24000,
      "componentType": 5126,
      "count": 112,
      "max": [
        28.24169921875,
        67.8409423828125,
        1.31243896484375
      ],
      "min": [
        -1.008544921875,
        54.4659423828125,
        -28.05535888671875
      ],
      "type": "VEC3"
    },
    {
      "bufferView": 2,
      "byteOffset": 25344,
      "componentType": 5126,
      "count": 112,
      "max": [
        0.97898745536804199,
        1,
        0.99989289045333862
      ],
      "min": [
        -0.97898709774017334,
        -1,
        -0.99989283084869385
      ],
      "type": "VEC3"
    },
    {
      "bufferView": 3,
      "byteOffset": 16000,
      "componentType": 5126,
      "count": 112,
      "max": [
        0.95317977666854858,
        0.083918198943138123,
        0.98848927021026611,
        1
      ],
      "min": [
        -0.95317983627319336,
        -0.99711149930953979,
        -0.99930012226104736,
        -1
      ],
      "type": "VEC4"
    },
    {
      "bufferView": 0,
      "byteOffset": 6720,
      "componentType": 5125,
      "count": 156,
      "max": [
        111
      ],
      "min": [
        0
      ],
      "type": "SCALAR"
    },
    {
      "bufferView": 2,
      "byteOffset": 26688,
      "componentType": 5126,
      "count": 64,
      "max": [
        29.445556640625,
        68.73193359375,
        -5.61566162109375
      ],
      "min": [
        21.8798828125,
        56.6558837890625,
        -20.13958740234375
      ],
      "type": "VEC3"
    },
    {
      "bufferView": 2,
      "byteOffset": 27456,
      "componentType": 5126,
      "count": 64,
      "max": [
        0.97054529190063477,
        0.97064107656478882,
        0.99989604949951172
      ],
      "min": [
        -0.97053569555282593,
        -0.97064405679702759,
        -0.99989604949951172
      ],
      "type": "VEC3"
    },
    {
      "bufferView": 3,
      "byteOffset": 17792,
      "componentType": 5126,
      "count": 64,
      "max": [
        0.97053688764572144,
        0.24054469168186188,
        0.014014792628586292,
        1
      ],
      "min": [
        -0.97053688764572144,
        -0.24054469168186188,
        -0.99989479780197144,
        -1
      ],
      "type": "VEC4"
    },
    {
      "bufferView": 0,
      "byteOffset": 7344,
      "componentType": 5125,
      "count": 96,
      "max": [
        63
      ],
      "min": [
        0
      ],
      "type": "SCALAR"
    },
    {
      "bufferView": 2,
      "byteOffset": 28224,
      "componentType": 5126,
      "count": 40,
      "max": [
        26.327880859375,
        60.3912353515625,
        1.03778076171875
      ],
      "min": [
        -1.717041015625,
        24.007568359375,
        -27.15411376953125
      ],
      "type": "VEC3"
    },
    {
      "bufferView": 2,
      "byteOffset": 28704,
      "componentType": 5126,
      "count": 40,
      "max": [
        0.97304099798202515,
        0.11189859360456467,
        0.95203715562820435
      ],
      "min": [
        -0.94645524024963379,
        -0.098330803215503693,
        -0.95989763736724854
      ],
      "type": "VEC3"
    },
    {
      "bufferView": 3,
      "byteOffset": 18816,
      "componentType": 5126,
      "count": 40,
      "max": [
        0.96617686748504639,
        0.0085199549794197083,
        -0.2577398419380188,
        1
      ],
      "min": [
        -0.95815050601959229,
        -0.0050389156676828861,
        -0.97655534744262695,
        -1
      ],
      "type": "VEC4"
    },
    {
      "bufferView": 1,
      "componentType": 5126,
      "count": 40,
      "max": [
        0.67704254388809204,
        0.89018255472183228
      ],
      "min": [
        0.14041814208030701,
        0.20930074155330658
      ],
      "type": "VEC2"
    },
    {
      "bufferView": 0,
      "byteOffset": 7728,
      "componentType": 5125,
      "count": 72,
      "max": [
        39
      ],
      "min": [
        0
      ],
      "type": "SCALAR"
    },
    {
      "bufferView": 2,
      "byteOffset": 29184,
      "componentType": 5126,
      "count": 248,
      "max": [
        32.1563720703125,
        141.41140747070312,
        37.79241943359375
      ],
      "min": [
        2.139892578125,
        16.7906494140625,
        -52.34869384765625
      ],
      "type": "VEC3"
    },
    {
      "bufferView": 2,
      "byteOffset": 32160,
      "componentType": 5126,
      "count": 248,
      "max": [
        0.99989485740661621,
        0.99785751104354858,
        0.99687451124191284
      ],
      "min": [
        -0.99989485740661621,
        -0.99785763025283813,
        -0.99723738431930542
      ],
      "type": "VEC3"
    },
    {
      "bufferView": 3,
      "byteOffset": 19456,
      "componentType": 5126,
      "count": 248,
      "max": [
        0.98733270168304443,
        0.91462051868438721,
        0.99827325344085693,
        1
      ],
      "min": [
        -0.99989491701126099,
        -0.98186451196670532,
        -0.99826920032501221,
        -1
      ],
      "type": "VEC4"
    },
    {
      "bufferView": 0,
      "byteOffset": 8016,
      "componentType": 5125,
      "count": 372,
      "max": [
        247
      ],
      "min": [
        0
      ],
      "type": "SCALAR"
    },
    {
      "bufferView": 2,
      "byteOffset": 35136,
      "componentType": 5126,
      "count": 224,
      "max": [
        44.14825439453125,
        158.24174499511719,
        12.52880859375
      ],
      "min": [
        -15.8006591796875,
        108.37109375,
        -36.01507568359375
      ],
      "type": "VEC3"
    },
    {
      "bufferView": 2,
      "byteOffset": 37824,
      "componentType": 5126,
      "count": 224,
      "max": [
        0.99089086055755615,
        0.99152481555938721,
        0.98687887191772461
      ],
      "min": [
        -0.98381185531616211,
        -0.99983382225036621,
        -0.99712049961090088
      ],
      "type": "VEC3"
    },
    {
      "bufferView": 3,
      "byteOffset": 23424,
      "componentType": 5126,
      "count": 224,
      "max": [
        0.9961516261100769,
        0.12573665380477905,
        0.99614590406417847,
        1
      ],
      "min": [
        -0.99615108966827393,
        -0.12574023008346558,
        -0.95370739698410034,
        -1
      ],
      "type": "VEC4"
    },
    {
      "bufferView": 0,
      "byteOffset": 9504,
      "componentType": 5125,
      "count": 324,
      "max": [
        223
      ],
      "min": [
        0
      ],
      "type": "SCALAR"
    },
    {
      "bufferView": 2,
      "byteOffset": 40512,
      "componentType": 5126,
      "count": 248,
      "max": [
        40.850799560546875,
        168.51739501953125,
        12.77642822265625
      ],
      "min": [
        -11.926513671875,
        112.33351135253906,
        -37.20697021484375
      ],
      "type": "VEC3"
    },
    {
      "bufferView": 2,
      "byteOffset": 43488,
      "componentType": 5126,
      "count": 248,
      "max": [
        0.99756097793579102,
        0.99607187509536743,
        0.99483686685562134
      ],
      "min": [
        -0.99660098552703857,
        -0.99778926372528076,
        -0.99966156482696533
      ],
      "type": "VEC3"
    },
    {
      "bufferView": 3,
      "byteOffset": 27008,
      "componentType": 5126,
      "count": 248,
      "max": [
        0.99948781728744507,
        0.99785774946212769,
        0.99483686685562134,
        1
      ],
      "min": [
        -0.99991303682327271,
        -0.99785786867141724,
        -0.99483698606491089,
        -1
      ],
      "type": "VEC4"
    },
    {
      "bufferView": 0,
      "byteOffset": 10800,
      "componentType": 5125,
      "count": 372,
      "max": [
        247
      ],
      "min": [
        0
      ],
      "type": "SCALAR"
    },
    {
      "bufferView": 2,
      "byteOffset": 46464,
      "componentType": 5126,
      "count": 48,
      "max": [
        29.541748046875,
        155.827880859375,
        218.00479125976562
      ],
      "min": [
        20.65283203125,
        140.844970703125,
        184.67471313476562
      ],
      "type": "VEC3"
    },
    {
      "bufferView": 2,
      "byteOffset": 47040,
      "componentType": 5126,
      "count": 48,
      "max": [
        0.83764034509658813,
        0.77030599117279053,
        0.45654842257499695
      ],
      "min": [
        -0.84767669439315796,
        -0.65066009759902954,
        -0.93708169460296631
      ],
      "type": "VEC3"
    },
    {
      "bufferView": 3,
      "byteOffset": 30976,
      "componentType": 5126,
      "count": 48,
      "max": [
        0.77979373931884766,
        0.60214459896087646,
        0.98469442129135132,
        1
      ],
      "min": [
        -0.75656354427337646,
        -0.71257179975509644,
        -0.98391127586364746,
        -1
      ],
      "type": "VEC4"
    },
    {
      "bufferView": 0,
      "byteOffset": 12288,
      "componentType": 5125,
      "count": 66,
      "max": [
        47
      ],
      "min": [
        0
      ],
      "type": "SCALAR"
    }
  ],
  "asset": {
    "extras": {
      "author": "BlackSpire (https://sketchfab.com/blackspire)",
      "license": "CC-BY-4.0 (http://creativecommons.org/licenses/by/4.0/)",
      "source": "https://sketchfab.com/models/b22cde6d2b9241b3bb7df7bc3cb70af8",
      "title": "Army_Soldier_56"
    },
    "generator": "Sketchfab-3.18.7",
    "version": "2.0"
  },
  "bufferViews": [
    {
      "buffer": 0,
      "byteLength": 12552,
      "byteOffset": 0,
      "name": "floatBufferViews",
      "target": 34963
    },
    {
      "buffer": 0,
      "byteLength": 320,
      "byteOffset": 12552,
      "byteStride": 8,
      "name": "floatBufferViews",
      "target": 34962
    },
    {
      "buffer": 0,
      "byteLength": 47616,
      "byteOffset": 12872,
      "byteStride": 12,
      "name": "floatBufferViews",
      "target": 34962
    },
    {
      "buffer": 0,
      "byteLength": 31744,
      "byteOffset": 60488,
      "byteStride": 16,
      "name": "floatBufferViews",
      "target": 34962
    }
  ],
  "buffers": [
    {
      "byteLength": 92232,
      "uri": "scene.bin"
    }
  ],
  "images": [
    {
      "uri": "textures/Stendardi_Mat3_baseColor.jpg"
    }
  ],
  "materials": [
    {
      "doubleSided": true,
      "emissiveFactor": [
        0,
        0,
        0
      ],
      "name": "Legno03_Mat",
      "pbrMetallicRoughness": {
        "baseColorFactor": [
          0.157,
          0.12124,
          0.090589000000000003,
          1
        ],
        "metallicFactor": 0,
        "roughnessFactor": 1
      }
    },
    {
      "doubleSided": true,
      "emissiveFactor": [
        0,
        0,
        0
      ],
      "name": "PG_Mat07",
      "pbrMetallicRoughness": {
        "baseColorFactor": [
          0.23577200000000001,
          0.23577200000000001,
          0.23577200000000001,
          1
        ],
        "metallicFactor": 0,
        "roughnessFactor": 1
      }
    },
    {
      "doubleSided": true,
      "emissiveFactor": [
        0,
        0,
        0
      ],
      "name": "PG_Mat04",
      "pbrMetallicRoughness": {
        "baseColorFactor": [
          0.37,
          0.20643,
          0.066229999999999997,
          1
        ],
        "metallicFactor": 0,
        "roughnessFactor": 1
      }
    },
    {
      "doubleSided": true,
      "emissiveFactor": [
        0,
        0,
        0
      ],
      "name": "lambert1",
      "pbrMetallicRoughness": {
        "baseColorFactor": [
          0.5,
          0.5,
          0.5,
          1
        ],
        "metallicFactor": 0,
        "roughnessFactor": 1
      }
    },
    {
      "doubleSided": true,
      "emissiveFactor": [
        0,
        0,
        0
      ],
      "name": "Stendardi_Mat3",
      "pbrMetallicRoughness": {
        "baseColorFactor": [
          1,
          1,
          1,
          1
        ],
        "baseColorTexture": {
          "index": 0,
          "texCoord": 0
        },
        "metallicFactor": 0,
        "roughnessFactor": 1
      }
    },
    {
      "doubleSided": true,
      "emissiveFactor": [
        0,
        0,
        0
      ],
      "name": "PG_Mat01",
      "pbrMetallicRoughness": {
        "baseColorFactor": [
          0,
          0,
          0,
          1
        ],
        "metallicFactor": 0,
        "roughnessFactor": 1
      }
    },
    {
      "doubleSided": true,
      "emissiveFactor": [
        0,
        0,
        0
      ],
      "name": "PG_Mat02",
      "pbrMetallicRoughness": {
        "baseColorFactor": [
          0.56499999999999995,
          0.37039100000000003,
          0.19549,
          1
        ],
        "metallicFactor": 0,
        "roughnessFactor": 1
      }
    },
    {
      "doubleSided": true,
      "emissiveFactor": [
        0,
        0,
        0
      ],
      "name": "PG_Mat03",
      "pbrMetallicRoughness": {
        "baseColorFactor": [
          0.5,
          0.17307500000000001,
          0,
          1
        ],
        "metallicFactor": 0,
        "roughnessFactor": 1
      }
    },
    {
      "doubleSided": true,
      "emissiveFactor": [
        0,
        0,
        0
      ],
      "name": "Ferro04_Mat",
      "pbrMetallicRoughness": {
        "baseColorFactor": [
          0.032000000000000001,
          0.032000000000000001,
          0.032000000000000001,
          1
        ],
        "metallicFactor": 0,
        "roughnessFactor": 1
      }
    }
  ],
  "meshes": [
    {
      "name": "Soldier_56_Legno03_Mat_0",
      "primitives": [
        {
          "attributes": {
            "NORMAL": 1,
            "POSITION": 0,
            "TANGENT": 2
          },
          "indices": 3,
          "material": 0,
          "mode": 4
        }
      ]
    },
    {
      "name": "Soldier_56_PG_Mat07_0",
      "primitives": [
        {
          "attributes": {
            "NORMAL": 5,
            "POSITION": 4,
            "TANGENT": 6
          },
          "indices": 7,
          "material": 1,
          "mode": 4
        }
      ]
    },
    {
      "name": "Soldier_56_PG_Mat04_0",
      "primitives": [
        {
          "attributes": {
            "NORMAL": 9,
            "POSITION": 8,
            "TANGENT": 10
          },
          "indices": 11,
          "material": 2,
          "mode": 4
        }
      ]
    },
    {
      "name": "Soldier_56_lambert1_0",
      "primitives": [
        {
          "attributes": {
            "NORMAL": 13,
            "POSITION": 12,
            "TANGENT": 14
          },
          "indices": 15,
          "material": 3,
          "mode": 4
        }
      ]
    },
    {
      "name": "Soldier_56_Stendardi_Mat3_0",
      "primitives": [
        {
          "attributes": {
            "NORMAL": 17,
            "POSITION": 16,
            "TANGENT": 18,
            "TEXCOORD_0": 19
          },
          "indices": 20,
          "material": 4,
          "mode": 4
        }
      ]
    },
    {
      "name": "Soldier_56_PG_Mat01_0",
      "primitives": [
        {
          "attributes": {
            "NORMAL": 22,
            "POSITION": 21,
            "TANGENT": 23
          },
          "indices": 24,
          "material": 5,
          "mode": 4
        }
      ]
    },
    {
      "name": "Soldier_56_PG_Mat02_0",
      "primitives": [
        {
          "attributes": {
            "NORMAL": 26,
            "POSITION": 25,
            "TANGENT": 27
          },
          "indices": 28,
          "material": 6,
          "mode": 4
        }
      ]
    },
    {
      "name": "Soldier_56_PG_Mat03_0",
      "primitives": [
        {
          "attributes": {
            "NORMAL": 30,
            "POSITION": 29,
            "TANGENT": 31
          },
          "indices": 32,
          "material": 7,
          "mode": 4
        }
      ]
    },
    {
      "name": "Soldier_56_Ferro04_Mat_0",
      "primitives": [
        {
          "attributes": {
            "NORMAL": 34,
            "POSITION": 33,
            "TANGENT": 35
          },
          "indices": 36,
          "material": 8,
          "mode": 4
        }
      ]
    }
  ],
  "nodes": [
    {
      "children": [
        1
      ],
      "name": "RootNode (gltf orientation matrix)",
      "rotation": [
        -0.70710678118654746,
        -0,
        -0,
        0.70710678118654757
      ]
    },
    {
      "children": [
        2
      ],
      "name": "RootNode (model correction matrix)"
    },
    {
      "children": [
        3
      ],
      "matrix": [
        1,
        0,
        0,
        0,
        0,
        0,
        1,
        0,
        0,
        -1,
        0,
        0,
        0,
        0,
        0,
        1
      ],
      "name": "0b28b4bb943d481bacf95c87b3c04184.fbx"
    },
    {
      "children": [
        4
      ],
      "name": "RootNode"
    },
    {
      "children": [
        5
      ],
      "matrix": [
        0.0099999997764825821,
        0,
        0,
        0,
        0,
        0.0099999997764825821,
        0,
        0,
        0,
        0,
        0.0099999997764825821,
        0,
        0,
        0,
        0,
        1
      ],
      "name": "group675"
    },
    {
      "children": [
        6,
        7,
        8,
        9,
        10,
        11,
        12,
        13,
        14
      ],
      "name": "Soldier_56"
    },
    {
      "mesh": 0,
      "name": "Soldier_56_Legno03_Mat_0"
    },
    {
      "mesh": 1,
      "name": "Soldier_56_PG_Mat07_0"
    },
    {
      "mesh": 2,
      "name": "Soldier_56_PG_Mat04_0"
    },
    {
      "mesh": 3,
      "name": "Soldier_56_lambert1_0"
    },
    {
      "mesh": 4,
      "name": "Soldier_56_Stendardi_Mat3_0"
    },
    {
      "mesh": 5,
      "name": "Soldier_56_PG_Mat01_0"
    },
    {
      "mesh": 6,
      "name": "Soldier_56_PG_Mat02_0"
    },
    {
      "mesh": 7,
      "name": "Soldier_56_PG_Mat03_0"
    },
    {
      "mesh": 8,
      "name": "Soldier_56_Ferro04_Mat_0"
    }
  ],
  "samplers": [
    {
      "magFilter": 9729,
      "minFilter": 9987,
      "wrapS": 10497,
      "wrapT": 10497
    }
  ],
  "scene": 0,
  "scenes": [
    {
      "name": "OSG_Scene",
      "nodes": [
        0
      ]
    }
  ],
  "textures": [
    {
      "sampler": 0,
      "source": 0
    }
  ]
}

